<svg width="279" height="27" viewBox="0 0 279 27" fill="none" xmlns="http://www.w3.org/2000/svg">
    <path d="M1.13672 14.3867C1.34766 13.4023 1.67578 12.457 2.12109 11.5508C2.57422 10.6367 3.11719 9.78125 3.75 8.98438C4.38281 8.1875 5.09375 7.46484 5.88281 6.81641C6.67188 6.16797 7.51172 5.60938 8.40234 5.14062C9.30078 4.67188 10.2305 4.3125 11.1914 4.0625C12.1602 3.80469 13.1367 3.67578 14.1211 3.67578C15.1055 3.67578 16.0234 3.80469 16.875 4.0625C17.7344 4.3125 18.5117 4.67188 19.207 5.14062C19.9023 5.60938 20.5039 6.16797 21.0117 6.81641C21.5273 7.46484 21.9336 8.1875 22.2305 8.98438C22.5273 9.78125 22.707 10.6367 22.7695 11.5508C22.832 12.457 22.7578 13.4023 22.5469 14.3867C22.3359 15.3711 22.0039 16.3203 21.5508 17.2344C21.1055 18.1406 20.5664 18.9922 19.9336 19.7891C19.3008 20.5781 18.5898 21.3008 17.8008 21.957C17.0117 22.6055 16.1719 23.1641 15.2812 23.6328C14.3906 24.0938 13.4609 24.4531 12.4922 24.7109C11.5312 24.9609 10.5586 25.0859 9.57422 25.0859C8.58984 25.0859 7.66797 24.9609 6.80859 24.7109C5.94922 24.4531 5.17188 24.0938 4.47656 23.6328C3.78906 23.1641 3.1875 22.6055 2.67188 21.957C2.15625 21.3008 1.75 20.5781 1.45312 19.7891C1.15625 18.9922 0.976562 18.1406 0.914062 17.2344C0.851562 16.3203 0.925781 15.3711 1.13672 14.3867ZM2.05078 14.3867C1.85547 15.293 1.78516 16.1641 1.83984 17C1.90234 17.8281 2.06641 18.6055 2.33203 19.332C2.60547 20.0586 2.97656 20.7188 3.44531 21.3125C3.91406 21.9062 4.46484 22.418 5.09766 22.8477C5.73828 23.2695 6.44922 23.5977 7.23047 23.832C8.01953 24.0586 8.86719 24.1719 9.77344 24.1719C10.6797 24.1719 11.5742 24.0586 12.457 23.832C13.3398 23.5977 14.1875 23.2695 15 22.8477C15.8203 22.418 16.5898 21.9062 17.3086 21.3125C18.0273 20.7188 18.6758 20.0586 19.2539 19.332C19.832 18.6055 20.3242 17.8281 20.7305 17C21.1367 16.1641 21.4375 15.293 21.6328 14.3867C21.8281 13.4805 21.8984 12.6094 21.8438 11.7734C21.7891 10.9375 21.625 10.1602 21.3516 9.44141C21.0859 8.71484 20.7188 8.05469 20.25 7.46094C19.7812 6.85938 19.2305 6.34766 18.5977 5.92578C17.9648 5.50391 17.2539 5.17578 16.4648 4.94141C15.6836 4.70703 14.8398 4.58984 13.9336 4.58984C13.0273 4.58984 12.1328 4.70703 11.25 4.94141C10.3672 5.17578 9.51562 5.50391 8.69531 5.92578C7.88281 6.34766 7.11328 6.85938 6.38672 7.46094C5.66797 8.05469 5.01953 8.71484 4.44141 9.44141C3.86328 10.1602 3.36719 10.9375 2.95312 11.7734C2.54688 12.6094 2.24609 13.4805 2.05078 14.3867ZM15.4688 16.7891C15.2344 17.375 14.9375 17.8984 14.5781 18.3594C14.2266 18.8203 13.8359 19.2148 13.4062 19.543C12.9766 19.8633 12.5234 20.1094 12.0469 20.2812C11.5781 20.4453 11.1094 20.5273 10.6406 20.5273C9.85938 20.5273 9.1875 20.3711 8.625 20.0586C8.07031 19.7461 7.62891 19.3164 7.30078 18.7695C6.98047 18.2148 6.78125 17.5625 6.70312 16.8125C6.625 16.0547 6.67969 15.2305 6.86719 14.3398C7.05469 13.4727 7.33984 12.6719 7.72266 11.9375C8.10547 11.1953 8.57031 10.5547 9.11719 10.0156C9.66406 9.47656 10.2773 9.05469 10.957 8.75C11.6367 8.44531 12.3672 8.29297 13.1484 8.29297C13.6953 8.29297 14.1797 8.38672 14.6016 8.57422C15.0312 8.75391 15.3867 9.00781 15.668 9.33594C15.957 9.65625 16.1758 10.043 16.3242 10.4961C16.4727 10.9492 16.543 11.4453 16.5352 11.9844H15.668C15.6523 11.5391 15.5781 11.1406 15.4453 10.7891C15.3125 10.4297 15.1289 10.125 14.8945 9.875C14.6602 9.625 14.3789 9.43359 14.0508 9.30078C13.7305 9.16797 13.3711 9.10156 12.9727 9.10156C12.3008 9.10156 11.6758 9.24219 11.0977 9.52344C10.5273 9.80469 10.0156 10.1836 9.5625 10.6602C9.11719 11.1367 8.73828 11.6914 8.42578 12.3242C8.11328 12.957 7.88281 13.6289 7.73438 14.3398C7.58594 15.0352 7.53125 15.707 7.57031 16.3555C7.61719 16.9961 7.76172 17.5664 8.00391 18.0664C8.25391 18.5664 8.60938 18.9648 9.07031 19.2617C9.53906 19.5586 10.1211 19.707 10.8164 19.707C11.2461 19.707 11.6523 19.6328 12.0352 19.4844C12.418 19.3359 12.7734 19.1328 13.1016 18.875C13.4297 18.6172 13.7227 18.3125 13.9805 17.9609C14.2383 17.6016 14.4609 17.2109 14.6484 16.7891H15.4688ZM36.9609 20.293C36.5469 20.6133 36.1602 20.9727 35.8008 21.3711C35.4492 21.7695 35.1367 22.1836 34.8633 22.6133C34.5898 23.0352 34.3555 23.4688 34.1602 23.9141C33.9727 24.3516 33.8359 24.7734 33.75 25.1797H44.3672L44.2031 26H32.5781C32.6953 25.4531 32.8516 24.9023 33.0469 24.3477C33.2422 23.793 33.4961 23.2461 33.8086 22.707C34.1211 22.168 34.5 21.6445 34.9453 21.1367C35.3906 20.6211 35.9141 20.1289 36.5156 19.6602L42.3984 15.0078C43.0078 14.5312 43.5469 14.0547 44.0156 13.5781C44.4922 13.1016 44.9102 12.6016 45.2695 12.0781C45.6289 11.5469 45.9336 10.9766 46.1836 10.3672C46.4336 9.75781 46.6367 9.08203 46.793 8.33984C46.957 7.54297 47.0156 6.82031 46.9688 6.17188C46.9219 5.51562 46.7617 4.95312 46.4883 4.48438C46.2148 4.01562 45.8242 3.65234 45.3164 3.39453C44.8086 3.13672 44.1758 3.00781 43.418 3.00781C42.582 3.00781 41.8242 3.17969 41.1445 3.52344C40.4648 3.86719 39.8672 4.32031 39.3516 4.88281C38.8438 5.44531 38.418 6.08203 38.0742 6.79297C37.7305 7.50391 37.4766 8.22656 37.3125 8.96094H36.3984C36.6641 7.88281 37.0273 6.92188 37.4883 6.07812C37.9492 5.23438 38.4883 4.52734 39.1055 3.95703C39.7305 3.37891 40.418 2.94141 41.168 2.64453C41.9258 2.33984 42.7305 2.1875 43.582 2.1875C44.5039 2.1875 45.2734 2.33984 45.8906 2.64453C46.5078 2.94141 46.9805 3.36328 47.3086 3.91016C47.6445 4.45703 47.8398 5.10938 47.8945 5.86719C47.957 6.61719 47.8945 7.44141 47.707 8.33984C47.5273 9.17578 47.2891 9.9375 46.9922 10.625C46.7031 11.3047 46.3516 11.9375 45.9375 12.5234C45.5234 13.1094 45.0469 13.668 44.5078 14.1992C43.9766 14.7227 43.3789 15.25 42.7148 15.7812L36.9609 20.293ZM54.8906 25.5195C55.6641 25.5195 56.3594 25.3516 56.9766 25.0156C57.6016 24.6719 58.1562 24.2109 58.6406 23.6328C59.1328 23.0469 59.5664 22.3711 59.9414 21.6055C60.3164 20.832 60.6484 20.0156 60.9375 19.1562C61.2344 18.2969 61.4922 17.418 61.7109 16.5195C61.9297 15.6211 62.1289 14.75 62.3086 13.9062C62.4805 13.1094 62.6367 12.2891 62.7773 11.4453C62.918 10.5938 63.0117 9.76562 63.0586 8.96094C63.1133 8.15625 63.1016 7.39844 63.0234 6.6875C62.9531 5.96875 62.793 5.33984 62.543 4.80078C62.293 4.26172 61.9336 3.83594 61.4648 3.52344C61.0039 3.21094 60.4062 3.05469 59.6719 3.05469C58.8906 3.05469 58.1875 3.23438 57.5625 3.59375C56.9375 3.94531 56.3789 4.41797 55.8867 5.01172C55.3945 5.59766 54.9609 6.26953 54.5859 7.02734C54.2188 7.77734 53.8945 8.55469 53.6133 9.35938C53.3398 10.1641 53.1055 10.9609 52.9102 11.75C52.7148 12.5391 52.5508 13.2578 52.418 13.9062C52.2383 14.7422 52.0664 15.6094 51.9023 16.5078C51.7383 17.3984 51.6172 18.2734 51.5391 19.1328C51.4609 19.9922 51.4453 20.8086 51.4922 21.582C51.5391 22.3555 51.6836 23.0352 51.9258 23.6211C52.168 24.1992 52.5273 24.6602 53.0039 25.0039C53.4805 25.3477 54.1094 25.5195 54.8906 25.5195ZM59.8477 2.23438C60.5586 2.23438 61.1641 2.34375 61.6641 2.5625C62.1719 2.77344 62.5898 3.06641 62.918 3.44141C63.2461 3.81641 63.4961 4.25781 63.668 4.76562C63.8477 5.27344 63.9688 5.82422 64.0312 6.41797C64.0938 7.00391 64.1094 7.62109 64.0781 8.26953C64.0469 8.91797 63.9844 9.57031 63.8906 10.2266C63.8047 10.875 63.6992 11.5117 63.5742 12.1367C63.457 12.7617 63.3398 13.3516 63.2227 13.9062C63.0273 14.8203 62.8125 15.7617 62.5781 16.7305C62.3516 17.6992 62.0781 18.6445 61.7578 19.5664C61.4453 20.4883 61.0781 21.3594 60.6562 22.1797C60.2422 23 59.75 23.7188 59.1797 24.3359C58.6172 24.9531 57.9688 25.4414 57.2344 25.8008C56.5 26.1602 55.6602 26.3398 54.7148 26.3398C54.0039 26.3398 53.3984 26.2344 52.8984 26.0234C52.3984 25.8203 51.9844 25.5352 51.6562 25.168C51.3281 24.8008 51.0742 24.3633 50.8945 23.8555C50.7148 23.3398 50.5938 22.7812 50.5312 22.1797C50.4688 21.5703 50.4531 20.9258 50.4844 20.2461C50.5234 19.5664 50.5898 18.8711 50.6836 18.1602C50.7852 17.4492 50.9023 16.7344 51.0352 16.0156C51.1758 15.2969 51.3203 14.5938 51.4688 13.9062C51.5859 13.3516 51.7148 12.7617 51.8555 12.1367C52.0039 11.5117 52.1758 10.875 52.3711 10.2266C52.5664 9.57031 52.7852 8.91797 53.0273 8.26953C53.2695 7.62109 53.5469 7.00391 53.8594 6.41797C54.1797 5.82422 54.5352 5.27344 54.9258 4.76562C55.3242 4.25781 55.7695 3.81641 56.2617 3.44141C56.7539 3.06641 57.2969 2.77344 57.8906 2.5625C58.4844 2.34375 59.1367 2.23438 59.8477 2.23438ZM75.8086 5.69141C75.3711 6.11328 74.9141 6.46094 74.4375 6.73438C73.9688 7 73.4922 7.21094 73.0078 7.36719C72.5234 7.51562 72.0352 7.62109 71.543 7.68359C71.0508 7.73828 70.5664 7.76562 70.0898 7.76562L70.2539 6.99219C71.0586 6.96875 71.7852 6.875 72.4336 6.71094C73.0898 6.53906 73.6758 6.28125 74.1914 5.9375C74.7148 5.58594 75.1758 5.13672 75.5742 4.58984C75.9805 4.03516 76.3398 3.36328 76.6523 2.57422H77.3789L72.4102 26H71.4961L75.8086 5.69141ZM83.8242 19.707C83.6445 20.5273 83.582 21.2969 83.6367 22.0156C83.6992 22.7266 83.8828 23.3516 84.1875 23.8906C84.5 24.4219 84.9375 24.8438 85.5 25.1562C86.0625 25.4609 86.7656 25.6133 87.6094 25.6133C88.4453 25.6133 89.1953 25.4609 89.8594 25.1562C90.5234 24.8438 91.1016 24.4219 91.5938 23.8906C92.0938 23.3516 92.5078 22.7266 92.8359 22.0156C93.1719 21.2969 93.4297 20.5273 93.6094 19.707C93.7734 18.9414 93.8398 18.2031 93.8086 17.4922C93.7852 16.7812 93.6406 16.1562 93.375 15.6172C93.1172 15.0703 92.7227 14.6328 92.1914 14.3047C91.6602 13.9766 90.9688 13.8125 90.1172 13.8125C89.2656 13.8125 88.4883 13.9805 87.7852 14.3164C87.082 14.6445 86.4609 15.082 85.9219 15.6289C85.3906 16.1758 84.9453 16.8047 84.5859 17.5156C84.2344 18.2188 83.9805 18.9492 83.8242 19.707ZM87.1055 7.85938C86.9414 8.625 86.8945 9.32422 86.9648 9.95703C87.0352 10.5898 87.2109 11.1328 87.4922 11.5859C87.7734 12.0312 88.1484 12.3789 88.6172 12.6289C89.0938 12.8711 89.6484 12.9922 90.2812 12.9922C90.9141 12.9922 91.5078 12.8672 92.0625 12.6172C92.6172 12.3594 93.1133 12.0078 93.5508 11.5625C93.9961 11.1094 94.375 10.5742 94.6875 9.95703C95 9.33984 95.2344 8.67188 95.3906 7.95312C95.5391 7.25781 95.5781 6.60938 95.5078 6.00781C95.4375 5.40625 95.2695 4.88281 95.0039 4.4375C94.7383 3.99219 94.3789 3.64453 93.9258 3.39453C93.4727 3.13672 92.9336 3.00781 92.3086 3.00781C91.6992 3.00781 91.1094 3.13672 90.5391 3.39453C89.9766 3.64453 89.4648 3.98828 89.0039 4.42578C88.543 4.86328 88.1445 5.37891 87.8086 5.97266C87.4805 6.55859 87.2461 7.1875 87.1055 7.85938ZM82.9102 19.707C83.0586 18.9883 83.2773 18.3047 83.5664 17.6562C83.8633 17 84.2227 16.3984 84.6445 15.8516C85.0664 15.2969 85.5547 14.8086 86.1094 14.3867C86.6719 13.9648 87.2969 13.6289 87.9844 13.3789C87.4922 13.0508 87.0977 12.6914 86.8008 12.3008C86.5039 11.9023 86.2891 11.4727 86.1562 11.0117C86.0234 10.5508 85.9648 10.0586 85.9805 9.53516C85.9961 9.00391 86.0664 8.44531 86.1914 7.85938C86.2773 7.4375 86.4102 7.00391 86.5898 6.55859C86.7695 6.11328 86.9922 5.67969 87.2578 5.25781C87.5234 4.83594 87.832 4.44141 88.1836 4.07422C88.5352 3.69922 88.9297 3.375 89.3672 3.10156C89.8047 2.82031 90.2812 2.59766 90.7969 2.43359C91.3125 2.26953 91.8711 2.1875 92.4727 2.1875C93.1914 2.1875 93.8281 2.32031 94.3828 2.58594C94.9453 2.84375 95.3984 3.22266 95.7422 3.72266C96.0938 4.21484 96.3203 4.82031 96.4219 5.53906C96.5234 6.25 96.4805 7.05469 96.293 7.95312C96.1758 8.51562 96.0195 9.04688 95.8242 9.54688C95.6367 10.0391 95.3945 10.5078 95.0977 10.9531C94.8008 11.3984 94.4375 11.8203 94.0078 12.2188C93.5781 12.6172 93.0586 13.0039 92.4492 13.3789C93.0117 13.6289 93.4609 13.9648 93.7969 14.3867C94.1406 14.8086 94.3906 15.2969 94.5469 15.8516C94.7109 16.3984 94.7852 17 94.7695 17.6562C94.7539 18.3047 94.6719 18.9883 94.5234 19.707C94.3203 20.6445 94.0234 21.5234 93.6328 22.3438C93.25 23.1562 92.7617 23.8672 92.168 24.4766C91.582 25.0859 90.8945 25.5664 90.1055 25.918C89.3164 26.2617 88.4258 26.4336 87.4336 26.4336C86.4258 26.4336 85.5859 26.2617 84.9141 25.918C84.2422 25.5664 83.7227 25.0859 83.3555 24.4766C82.9961 23.8672 82.7812 23.1562 82.7109 22.3438C82.6406 21.5234 82.707 20.6445 82.9102 19.707ZM107.66 26L112.863 1.51953H113.777L110.648 16.2031L125.062 1.51953H126.117L116.402 11.5508L121.723 26H120.668L115.559 12.2773L110.473 17.457L108.668 26H107.66ZM127.664 13.6133C127.859 12.6836 128.102 11.7266 128.391 10.7422C128.688 9.75781 129.039 8.80078 129.445 7.87109C129.852 6.93359 130.324 6.05078 130.863 5.22266C131.41 4.38672 132.031 3.65625 132.727 3.03125C133.422 2.40625 134.203 1.91016 135.07 1.54297C135.945 1.17578 136.914 0.992188 137.977 0.992188C139.07 0.992188 139.977 1.17578 140.695 1.54297C141.414 1.90234 141.98 2.39453 142.395 3.01953C142.816 3.63672 143.109 4.35938 143.273 5.1875C143.438 6.01562 143.512 6.89844 143.496 7.83594C143.488 8.76562 143.41 9.72266 143.262 10.707C143.113 11.6836 142.941 12.6367 142.746 13.5664C142.496 14.7148 142.211 15.832 141.891 16.918C141.57 18.0039 141.203 19.0312 140.789 20C140.375 20.9688 139.898 21.8594 139.359 22.6719C138.828 23.4766 138.223 24.1719 137.543 24.7578C136.863 25.3438 136.102 25.8008 135.258 26.1289C134.414 26.457 133.473 26.6211 132.434 26.6211C131.363 26.6211 130.469 26.457 129.75 26.1289C129.031 25.8086 128.457 25.3594 128.027 24.7812C127.598 24.1953 127.293 23.5 127.113 22.6953C126.934 21.8906 126.844 21.0078 126.844 20.0469C126.852 19.0781 126.93 18.0508 127.078 16.9648C127.234 15.8711 127.43 14.7539 127.664 13.6133ZM141.82 13.6133C142.055 12.543 142.242 11.5078 142.383 10.5078C142.523 9.50781 142.59 8.57031 142.582 7.69531C142.582 6.82031 142.496 6.02344 142.324 5.30469C142.152 4.57812 141.879 3.95703 141.504 3.44141C141.129 2.92578 140.637 2.52734 140.027 2.24609C139.426 1.95703 138.684 1.8125 137.801 1.8125C136.949 1.8125 136.164 1.95703 135.445 2.24609C134.727 2.52734 134.062 2.92578 133.453 3.44141C132.844 3.95703 132.289 4.57812 131.789 5.30469C131.297 6.02344 130.848 6.82031 130.441 7.69531C130.043 8.57031 129.688 9.50781 129.375 10.5078C129.07 11.5078 128.805 12.543 128.578 13.6133C128.133 15.7148 127.879 17.5312 127.816 19.0625C127.762 20.5938 127.898 21.8594 128.227 22.8594C128.562 23.8594 129.094 24.6016 129.82 25.0859C130.555 25.5703 131.484 25.8125 132.609 25.8125C133.664 25.8125 134.652 25.5703 135.574 25.0859C136.504 24.6016 137.355 23.8594 138.129 22.8594C138.902 21.8594 139.598 20.5938 140.215 19.0625C140.84 17.5312 141.375 15.7148 141.82 13.6133ZM147.715 26H146.754L151.957 1.51953H158.203C159.453 1.51953 160.512 1.64063 161.379 1.88281C162.246 2.125 162.926 2.5 163.418 3.00781C163.918 3.51562 164.23 4.16406 164.355 4.95312C164.488 5.73438 164.438 6.67188 164.203 7.76562C164.062 8.42188 163.859 9.08594 163.594 9.75781C163.336 10.4219 162.996 11.043 162.574 11.6211C162.152 12.1914 161.641 12.6953 161.039 13.1328C160.438 13.5703 159.73 13.8906 158.918 14.0938C159.551 14.2734 160.062 14.5664 160.453 14.9727C160.852 15.3789 161.145 15.8633 161.332 16.4258C161.527 16.9805 161.625 17.5898 161.625 18.2539C161.625 18.918 161.551 19.5977 161.402 20.293C161.316 20.6914 161.227 21.1445 161.133 21.6523C161.039 22.1523 160.961 22.6641 160.898 23.1875C160.836 23.7031 160.793 24.207 160.77 24.6992C160.746 25.1914 160.762 25.625 160.816 26H159.809C159.754 25.1016 159.797 24.1602 159.938 23.1758C160.078 22.1836 160.25 21.2031 160.453 20.2344C160.625 19.4297 160.68 18.6758 160.617 17.9727C160.562 17.2695 160.371 16.6562 160.043 16.1328C159.715 15.6094 159.234 15.1953 158.602 14.8906C157.977 14.5859 157.18 14.4336 156.211 14.4336H150.164L147.715 26ZM150.34 13.6133H156.387C156.66 13.6133 156.992 13.5977 157.383 13.5664C157.781 13.5273 158.203 13.4453 158.648 13.3203C159.102 13.1953 159.562 13.0078 160.031 12.7578C160.5 12.5078 160.945 12.168 161.367 11.7383C161.789 11.3008 162.168 10.7617 162.504 10.1211C162.848 9.47266 163.113 8.6875 163.301 7.76562C163.48 6.92188 163.531 6.20312 163.453 5.60938C163.383 5.01562 163.223 4.51953 162.973 4.12109C162.723 3.71484 162.402 3.39453 162.012 3.16016C161.621 2.92578 161.199 2.75 160.746 2.63281C160.293 2.50781 159.824 2.42969 159.34 2.39844C158.863 2.35938 158.41 2.33984 157.98 2.33984H152.742L150.34 13.6133ZM185.871 1.51953H186.785L181.582 26H180.094L173.543 2.38672H173.496L168.48 26H167.566L172.77 1.51953H174.258L180.797 25.1328H180.844L185.871 1.51953ZM190.805 13.6133C191 12.6836 191.242 11.7266 191.531 10.7422C191.828 9.75781 192.18 8.80078 192.586 7.87109C192.992 6.93359 193.465 6.05078 194.004 5.22266C194.551 4.38672 195.172 3.65625 195.867 3.03125C196.562 2.40625 197.344 1.91016 198.211 1.54297C199.086 1.17578 200.055 0.992188 201.117 0.992188C202.211 0.992188 203.117 1.17578 203.836 1.54297C204.555 1.90234 205.121 2.39453 205.535 3.01953C205.957 3.63672 206.25 4.35938 206.414 5.1875C206.578 6.01562 206.652 6.89844 206.637 7.83594C206.629 8.76562 206.551 9.72266 206.402 10.707C206.254 11.6836 206.082 12.6367 205.887 13.5664C205.637 14.7148 205.352 15.832 205.031 16.918C204.711 18.0039 204.344 19.0312 203.93 20C203.516 20.9688 203.039 21.8594 202.5 22.6719C201.969 23.4766 201.363 24.1719 200.684 24.7578C200.004 25.3438 199.242 25.8008 198.398 26.1289C197.555 26.457 196.613 26.6211 195.574 26.6211C194.504 26.6211 193.609 26.457 192.891 26.1289C192.172 25.8086 191.598 25.3594 191.168 24.7812C190.738 24.1953 190.434 23.5 190.254 22.6953C190.074 21.8906 189.984 21.0078 189.984 20.0469C189.992 19.0781 190.07 18.0508 190.219 16.9648C190.375 15.8711 190.57 14.7539 190.805 13.6133ZM204.961 13.6133C205.195 12.543 205.383 11.5078 205.523 10.5078C205.664 9.50781 205.73 8.57031 205.723 7.69531C205.723 6.82031 205.637 6.02344 205.465 5.30469C205.293 4.57812 205.02 3.95703 204.645 3.44141C204.27 2.92578 203.777 2.52734 203.168 2.24609C202.566 1.95703 201.824 1.8125 200.941 1.8125C200.09 1.8125 199.305 1.95703 198.586 2.24609C197.867 2.52734 197.203 2.92578 196.594 3.44141C195.984 3.95703 195.43 4.57812 194.93 5.30469C194.438 6.02344 193.988 6.82031 193.582 7.69531C193.184 8.57031 192.828 9.50781 192.516 10.5078C192.211 11.5078 191.945 12.543 191.719 13.6133C191.273 15.7148 191.02 17.5312 190.957 19.0625C190.902 20.5938 191.039 21.8594 191.367 22.8594C191.703 23.8594 192.234 24.6016 192.961 25.0859C193.695 25.5703 194.625 25.8125 195.75 25.8125C196.805 25.8125 197.793 25.5703 198.715 25.0859C199.645 24.6016 200.496 23.8594 201.27 22.8594C202.043 21.8594 202.738 20.5938 203.355 19.0625C203.98 17.5312 204.516 15.7148 204.961 13.6133ZM210.855 26H209.895L215.098 1.51953H221.344C222.594 1.51953 223.652 1.64063 224.52 1.88281C225.387 2.125 226.066 2.5 226.559 3.00781C227.059 3.51562 227.371 4.16406 227.496 4.95312C227.629 5.73438 227.578 6.67188 227.344 7.76562C227.203 8.42188 227 9.08594 226.734 9.75781C226.477 10.4219 226.137 11.043 225.715 11.6211C225.293 12.1914 224.781 12.6953 224.18 13.1328C223.578 13.5703 222.871 13.8906 222.059 14.0938C222.691 14.2734 223.203 14.5664 223.594 14.9727C223.992 15.3789 224.285 15.8633 224.473 16.4258C224.668 16.9805 224.766 17.5898 224.766 18.2539C224.766 18.918 224.691 19.5977 224.543 20.293C224.457 20.6914 224.367 21.1445 224.273 21.6523C224.18 22.1523 224.102 22.6641 224.039 23.1875C223.977 23.7031 223.934 24.207 223.91 24.6992C223.887 25.1914 223.902 25.625 223.957 26H222.949C222.895 25.1016 222.938 24.1602 223.078 23.1758C223.219 22.1836 223.391 21.2031 223.594 20.2344C223.766 19.4297 223.82 18.6758 223.758 17.9727C223.703 17.2695 223.512 16.6562 223.184 16.1328C222.855 15.6094 222.375 15.1953 221.742 14.8906C221.117 14.5859 220.32 14.4336 219.352 14.4336H213.305L210.855 26ZM213.48 13.6133H219.527C219.801 13.6133 220.133 13.5977 220.523 13.5664C220.922 13.5273 221.344 13.4453 221.789 13.3203C222.242 13.1953 222.703 13.0078 223.172 12.7578C223.641 12.5078 224.086 12.168 224.508 11.7383C224.93 11.3008 225.309 10.7617 225.645 10.1211C225.988 9.47266 226.254 8.6875 226.441 7.76562C226.621 6.92188 226.672 6.20312 226.594 5.60938C226.523 5.01562 226.363 4.51953 226.113 4.12109C225.863 3.71484 225.543 3.39453 225.152 3.16016C224.762 2.92578 224.34 2.75 223.887 2.63281C223.434 2.50781 222.965 2.42969 222.48 2.39844C222.004 2.35938 221.551 2.33984 221.121 2.33984H215.883L213.48 13.6133ZM239.965 5.69141C239.527 6.11328 239.07 6.46094 238.594 6.73438C238.125 7 237.648 7.21094 237.164 7.36719C236.68 7.51562 236.191 7.62109 235.699 7.68359C235.207 7.73828 234.723 7.76562 234.246 7.76562L234.41 6.99219C235.215 6.96875 235.941 6.875 236.59 6.71094C237.246 6.53906 237.832 6.28125 238.348 5.9375C238.871 5.58594 239.332 5.13672 239.73 4.58984C240.137 4.03516 240.496 3.36328 240.809 2.57422H241.535L236.566 26H235.652L239.965 5.69141ZM252.949 13.2266C253.637 13.1953 254.324 13.0742 255.012 12.8633C255.707 12.6523 256.352 12.3281 256.945 11.8906C257.539 11.4531 258.062 10.8828 258.516 10.1797C258.969 9.46875 259.305 8.59766 259.523 7.56641C259.648 6.95703 259.684 6.375 259.629 5.82031C259.582 5.26562 259.422 4.78125 259.148 4.36719C258.883 3.95312 258.496 3.625 257.988 3.38281C257.488 3.13281 256.855 3.00781 256.09 3.00781C255.285 3.00781 254.578 3.13672 253.969 3.39453C253.359 3.65234 252.832 4 252.387 4.4375C251.949 4.86719 251.582 5.37109 251.285 5.94922C250.988 6.51953 250.746 7.125 250.559 7.76562H249.645C249.863 6.96875 250.164 6.23047 250.547 5.55078C250.938 4.87109 251.406 4.28516 251.953 3.79297C252.508 3.29297 253.145 2.90234 253.863 2.62109C254.582 2.33203 255.379 2.1875 256.254 2.1875C257.09 2.1875 257.809 2.32031 258.41 2.58594C259.02 2.85156 259.5 3.22266 259.852 3.69922C260.211 4.16797 260.438 4.73438 260.531 5.39844C260.633 6.05469 260.602 6.77734 260.438 7.56641C260.336 8.05078 260.195 8.5625 260.016 9.10156C259.836 9.64062 259.562 10.1758 259.195 10.707C258.836 11.2383 258.355 11.7461 257.754 12.2305C257.152 12.7148 256.379 13.1445 255.434 13.5195C256.059 13.6836 256.582 13.9023 257.004 14.1758C257.426 14.4414 257.762 14.7461 258.012 15.0898C258.27 15.4336 258.453 15.8086 258.562 16.2148C258.672 16.6133 258.734 17.0273 258.75 17.457C258.766 17.8789 258.746 18.3047 258.691 18.7344C258.637 19.1562 258.566 19.5625 258.48 19.9531C258.293 20.8203 258.012 21.6367 257.637 22.4023C257.27 23.168 256.789 23.8398 256.195 24.418C255.602 24.9961 254.895 25.4531 254.074 25.7891C253.254 26.125 252.305 26.293 251.227 26.293C250.18 26.293 249.32 26.1484 248.648 25.8594C247.977 25.5625 247.461 25.1445 247.102 24.6055C246.742 24.0664 246.531 23.4219 246.469 22.6719C246.406 21.9141 246.461 21.0703 246.633 20.1406H247.547C247.406 20.8047 247.34 21.457 247.348 22.0977C247.355 22.7305 247.488 23.2969 247.746 23.7969C248.012 24.2969 248.434 24.7031 249.012 25.0156C249.598 25.3203 250.395 25.4727 251.402 25.4727C252.293 25.4727 253.082 25.3359 253.77 25.0625C254.457 24.7812 255.055 24.3984 255.562 23.9141C256.07 23.4219 256.488 22.8438 256.816 22.1797C257.145 21.5078 257.391 20.7812 257.555 20C257.773 18.9609 257.84 18.0664 257.754 17.3164C257.676 16.5586 257.441 15.9336 257.051 15.4414C256.66 14.9492 256.109 14.582 255.398 14.3398C254.695 14.0898 253.832 13.9453 252.809 13.9062L252.949 13.2266ZM266.812 2.57422H278.871L278.684 3.48828C277.238 5.08203 275.883 6.75781 274.617 8.51562C273.359 10.2734 272.184 12.0977 271.09 13.9883C270.004 15.8789 268.996 17.8281 268.066 19.8359C267.137 21.8438 266.281 23.8984 265.5 26H264.586C265.266 24.0781 266.035 22.1562 266.895 20.2344C267.762 18.3125 268.73 16.4023 269.801 14.5039C270.879 12.6055 272.07 10.7266 273.375 8.86719C274.68 7.00781 276.117 5.18359 277.688 3.39453H266.648L266.812 2.57422Z" fill="white"/>
</svg>
