<svg width="153" height="13" viewBox="0 0 153 13" fill="none" xmlns="http://www.w3.org/2000/svg">
    <path d="M6.55078 0C7.13281 0 7.68945 0.0722656 8.2207 0.216797C8.75195 0.357422 9.24414 0.558594 9.69727 0.820312C10.1543 1.08203 10.5664 1.39844 10.9336 1.76953C11.3047 2.13672 11.6211 2.54883 11.8828 3.00586C12.1445 3.46289 12.3457 3.95703 12.4863 4.48828C12.627 5.01562 12.6973 5.56836 12.6973 6.14648C12.6973 6.72461 12.627 7.2793 12.4863 7.81055C12.3457 8.33789 12.1445 8.83008 11.8828 9.28711C11.6211 9.74023 11.3047 10.1523 10.9336 10.5234C10.5664 10.8906 10.1543 11.2051 9.69727 11.4668C9.24414 11.7285 8.75195 11.9297 8.2207 12.0703C7.68945 12.2148 7.13281 12.2871 6.55078 12.2871C5.97266 12.2871 5.41797 12.2148 4.88672 12.0703C4.35938 11.9297 3.86719 11.7285 3.41016 11.4668C2.95703 11.2051 2.54492 10.8906 2.17383 10.5234C1.80664 10.1523 1.49219 9.74023 1.23047 9.28711C0.96875 8.83008 0.765625 8.33789 0.621094 7.81055C0.480469 7.2793 0.410156 6.72461 0.410156 6.14648C0.410156 5.56836 0.480469 5.01562 0.621094 4.48828C0.765625 3.95703 0.96875 3.46289 1.23047 3.00586C1.49219 2.54883 1.80664 2.13672 2.17383 1.76953C2.54492 1.39844 2.95703 1.08203 3.41016 0.820312C3.86719 0.558594 4.35938 0.357422 4.88672 0.216797C5.41406 0.0722656 5.96875 0 6.55078 0ZM6.55078 0.960938C6.06641 0.960938 5.60352 1.02344 5.16211 1.14844C4.72461 1.26953 4.31836 1.44336 3.94336 1.66992C3.56836 1.89648 3.22656 2.16797 2.91797 2.48438C2.61328 2.79688 2.35352 3.14648 2.13867 3.5332C1.92383 3.91602 1.75781 4.32812 1.64062 4.76953C1.52344 5.21094 1.46484 5.66992 1.46484 6.14648C1.46484 6.62695 1.52344 7.08789 1.64062 7.5293C1.75781 7.9707 1.92383 8.38477 2.13867 8.77148C2.35352 9.1543 2.61328 9.50391 2.91797 9.82031C3.22656 10.1328 3.56836 10.4004 3.94336 10.623C4.31836 10.8457 4.72461 11.0195 5.16211 11.1445C5.60352 11.2656 6.06641 11.3262 6.55078 11.3262C7.03516 11.3262 7.49805 11.2656 7.93945 11.1445C8.38086 11.0195 8.79102 10.8457 9.16992 10.623C9.54883 10.4004 9.89062 10.1328 10.1953 9.82031C10.5039 9.50391 10.7676 9.1543 10.9863 8.77148C11.2051 8.38477 11.373 7.9707 11.4902 7.5293C11.6074 7.08789 11.666 6.62695 11.666 6.14648C11.666 5.66992 11.6074 5.21094 11.4902 4.76953C11.373 4.32812 11.2051 3.91602 10.9863 3.5332C10.7676 3.14648 10.5039 2.79688 10.1953 2.48438C9.89062 2.16797 9.54883 1.89648 9.16992 1.66992C8.79102 1.44336 8.38086 1.26953 7.93945 1.14844C7.49805 1.02344 7.03516 0.960938 6.55078 0.960938ZM8.5957 5.05078C8.53711 4.79297 8.45508 4.5625 8.34961 4.35938C8.24805 4.15234 8.12109 3.97852 7.96875 3.83789C7.82031 3.69336 7.64453 3.58398 7.44141 3.50977C7.23828 3.43164 7.00586 3.39258 6.74414 3.39258C6.35352 3.39258 6.01367 3.47461 5.72461 3.63867C5.43945 3.79883 5.20117 4.01172 5.00977 4.27734C4.82227 4.54297 4.68164 4.84766 4.58789 5.19141C4.49805 5.53125 4.45312 5.88086 4.45312 6.24023C4.45312 6.59961 4.49805 6.95117 4.58789 7.29492C4.68164 7.63477 4.82227 7.9375 5.00977 8.20312C5.20117 8.46875 5.43945 8.68359 5.72461 8.84766C6.01367 9.00781 6.35352 9.08789 6.74414 9.08789C6.99414 9.08789 7.22656 9.03906 7.44141 8.94141C7.66016 8.84375 7.85156 8.70898 8.01562 8.53711C8.17969 8.36133 8.31445 8.1543 8.41992 7.91602C8.52539 7.67383 8.58984 7.4082 8.61328 7.11914H9.66211C9.60742 7.56445 9.49805 7.96484 9.33398 8.32031C9.17383 8.67188 8.9668 8.97266 8.71289 9.22266C8.46289 9.47266 8.17188 9.66406 7.83984 9.79688C7.50781 9.92969 7.14258 9.99609 6.74414 9.99609C6.19727 9.99609 5.71484 9.89648 5.29688 9.69727C4.88281 9.49805 4.53516 9.22852 4.25391 8.88867C3.97266 8.54492 3.75977 8.14648 3.61523 7.69336C3.4707 7.23633 3.39844 6.75195 3.39844 6.24023C3.39844 5.72852 3.4707 5.24414 3.61523 4.78711C3.75977 4.33008 3.97266 3.92969 4.25391 3.58594C4.53516 3.23828 4.88281 2.96484 5.29688 2.76562C5.71484 2.5625 6.19727 2.46094 6.74414 2.46094C7.12305 2.46094 7.47461 2.51562 7.79883 2.625C8.12695 2.73047 8.41406 2.89062 8.66016 3.10547C8.91016 3.32031 9.11719 3.58984 9.28125 3.91406C9.44531 4.23828 9.55664 4.61719 9.61523 5.05078H8.5957ZM25.3652 12H17.7305C17.7383 11.5938 17.7852 11.2188 17.8711 10.875C17.9609 10.5312 18.082 10.2148 18.2344 9.92578C18.3867 9.63281 18.5664 9.36328 18.7734 9.11719C18.9844 8.86719 19.2129 8.63281 19.459 8.41406C19.7051 8.19531 19.9668 7.98828 20.2441 7.79297C20.5215 7.59766 20.8047 7.4043 21.0938 7.21289C21.3125 7.07227 21.5391 6.92969 21.7734 6.78516C22.0117 6.63672 22.2461 6.48242 22.4766 6.32227C22.707 6.1582 22.9258 5.98633 23.1328 5.80664C23.3398 5.62305 23.5215 5.42383 23.6777 5.20898C23.834 4.99414 23.957 4.75977 24.0469 4.50586C24.1406 4.25195 24.1875 3.97266 24.1875 3.66797C24.1875 3.30469 24.1191 2.98047 23.9824 2.69531C23.8496 2.40625 23.668 2.16211 23.4375 1.96289C23.2109 1.76367 22.9434 1.61133 22.6348 1.50586C22.3301 1.40039 22.0078 1.34766 21.668 1.34766C21.207 1.34766 20.8145 1.4375 20.4902 1.61719C20.166 1.79297 19.9004 2.0293 19.6934 2.32617C19.4902 2.61914 19.3418 2.95898 19.248 3.3457C19.1582 3.73242 19.1172 4.13672 19.125 4.55859H17.9941C17.9824 3.95703 18.0508 3.40234 18.1992 2.89453C18.3477 2.38281 18.5762 1.94141 18.8848 1.57031C19.1934 1.19922 19.582 0.910156 20.0508 0.703125C20.5234 0.492188 21.0781 0.386719 21.7148 0.386719C22.2227 0.386719 22.6953 0.458984 23.1328 0.603516C23.5742 0.744141 23.957 0.953125 24.2812 1.23047C24.6055 1.50391 24.8594 1.8457 25.043 2.25586C25.2266 2.66602 25.3184 3.13672 25.3184 3.66797C25.3184 4.14844 25.2344 4.58594 25.0664 4.98047C24.8984 5.37109 24.6738 5.73047 24.3926 6.05859C24.1152 6.38281 23.7949 6.67969 23.4316 6.94922C23.0684 7.21875 22.6934 7.46875 22.3066 7.69922C21.8457 7.97656 21.4297 8.24414 21.0586 8.50195C20.6875 8.75586 20.3652 9.01367 20.0918 9.27539C19.8184 9.53711 19.5957 9.80469 19.4238 10.0781C19.252 10.3516 19.1367 10.6406 19.0781 10.9453H25.3652V12ZM30.8555 1.29492C30.4297 1.29492 30.0586 1.37305 29.7422 1.5293C29.4297 1.68555 29.1621 1.89453 28.9395 2.15625C28.7207 2.41406 28.541 2.71289 28.4004 3.05273C28.2637 3.39258 28.1562 3.74805 28.0781 4.11914C28 4.48633 27.9453 4.85742 27.9141 5.23242C27.8867 5.60742 27.873 5.95898 27.873 6.28711C27.873 6.61523 27.8867 6.9668 27.9141 7.3418C27.9453 7.7168 28 8.08984 28.0781 8.46094C28.1562 8.82812 28.2637 9.18164 28.4004 9.52148C28.541 9.86133 28.7207 10.1621 28.9395 10.4238C29.1621 10.6816 29.4297 10.8887 29.7422 11.0449C30.0547 11.2012 30.4258 11.2793 30.8555 11.2793C31.2852 11.2793 31.6562 11.2012 31.9688 11.0449C32.2812 10.8887 32.5469 10.6816 32.7656 10.4238C32.9883 10.1621 33.168 9.86133 33.3047 9.52148C33.4414 9.18164 33.5469 8.82812 33.6211 8.46094C33.6992 8.08984 33.752 7.7168 33.7793 7.3418C33.8066 6.9668 33.8203 6.61523 33.8203 6.28711C33.8203 5.95898 33.8066 5.60742 33.7793 5.23242C33.752 4.85742 33.6992 4.48633 33.6211 4.11914C33.5469 3.74805 33.4414 3.39258 33.3047 3.05273C33.168 2.71289 32.9883 2.41406 32.7656 2.15625C32.5469 1.89453 32.2812 1.68555 31.9688 1.5293C31.6562 1.37305 31.2852 1.29492 30.8555 1.29492ZM30.8555 0.333984C31.418 0.333984 31.9102 0.417969 32.332 0.585938C32.7578 0.753906 33.123 0.984375 33.4277 1.27734C33.7324 1.56641 33.9844 1.90625 34.1836 2.29688C34.3828 2.68359 34.5391 3.09766 34.6523 3.53906C34.7695 3.98047 34.8516 4.43555 34.8984 4.9043C34.9453 5.37305 34.9688 5.83398 34.9688 6.28711C34.9688 6.74023 34.9453 7.20117 34.8984 7.66992C34.8516 8.13867 34.7695 8.59375 34.6523 9.03516C34.5391 9.47656 34.3828 9.89258 34.1836 10.2832C33.9844 10.6699 33.7324 11.0098 33.4277 11.3027C33.123 11.5918 32.7578 11.8203 32.332 11.9883C31.9102 12.1562 31.418 12.2402 30.8555 12.2402C30.293 12.2402 29.8008 12.1562 29.3789 11.9883C28.957 11.8203 28.5938 11.5918 28.2891 11.3027C27.9844 11.0098 27.7324 10.6699 27.5332 10.2832C27.334 9.89258 27.1758 9.47656 27.0586 9.03516C26.9414 8.59375 26.8594 8.13867 26.8125 7.66992C26.7656 7.20117 26.7422 6.74023 26.7422 6.28711C26.7422 5.83398 26.7656 5.37305 26.8125 4.9043C26.8594 4.43555 26.9414 3.98047 27.0586 3.53906C27.1758 3.09766 27.334 2.68359 27.5332 2.29688C27.7324 1.90625 27.9844 1.56641 28.2891 1.27734C28.5938 0.984375 28.957 0.753906 29.3789 0.585938C29.8008 0.417969 30.293 0.333984 30.8555 0.333984ZM36.9492 2.80078C37.2227 2.78516 37.4824 2.76367 37.7285 2.73633C37.9785 2.70898 38.2129 2.66602 38.4316 2.60742C38.6504 2.54883 38.8516 2.46875 39.0352 2.36719C39.2227 2.26562 39.3887 2.13477 39.5332 1.97461C39.6816 1.81055 39.8086 1.61328 39.9141 1.38281C40.0234 1.14844 40.1074 0.869141 40.166 0.544922H41.127V12H39.9961V3.08789C39.8164 3.22852 39.6172 3.34375 39.3984 3.43359C39.1836 3.51953 38.9492 3.58984 38.6953 3.64453C38.4414 3.69531 38.168 3.73242 37.875 3.75586C37.5859 3.7793 37.2773 3.79688 36.9492 3.80859V2.80078ZM49.0898 11.3262C49.4883 11.3262 49.8633 11.2754 50.2148 11.1738C50.5703 11.0684 50.8809 10.9121 51.1465 10.7051C51.4121 10.4941 51.6211 10.2305 51.7734 9.91406C51.9297 9.59375 52.0078 9.2168 52.0078 8.7832C52.0078 8.37695 51.9258 8.01953 51.7617 7.71094C51.6016 7.40234 51.3867 7.14648 51.1172 6.94336C50.8477 6.73633 50.5371 6.58203 50.1855 6.48047C49.834 6.37891 49.4688 6.33008 49.0898 6.33398C48.6992 6.33008 48.3262 6.37695 47.9707 6.47461C47.6191 6.57227 47.3086 6.72461 47.0391 6.93164C46.7695 7.13477 46.5547 7.39062 46.3945 7.69922C46.2344 8.00781 46.1543 8.36914 46.1543 8.7832C46.1543 9.20898 46.2324 9.58203 46.3887 9.90234C46.5488 10.2188 46.7617 10.4824 47.0273 10.6934C47.2969 10.9043 47.6094 11.0625 47.9648 11.168C48.3203 11.2734 48.6953 11.3262 49.0898 11.3262ZM52.5 3.28711C52.5 3.58008 52.4668 3.85938 52.4004 4.125C52.3379 4.39062 52.2402 4.63477 52.1074 4.85742C51.9785 5.08008 51.8125 5.27734 51.6094 5.44922C51.4062 5.61719 51.166 5.75195 50.8887 5.85352C51.2363 5.93945 51.5488 6.07031 51.8262 6.24609C52.1035 6.41797 52.3379 6.62891 52.5293 6.87891C52.7246 7.12891 52.873 7.41406 52.9746 7.73438C53.0801 8.05469 53.1328 8.4043 53.1328 8.7832C53.1328 9.36523 53.0234 9.875 52.8047 10.3125C52.5859 10.75 52.291 11.1152 51.9199 11.4082C51.5527 11.7012 51.123 11.9199 50.6309 12.0645C50.1426 12.2129 49.6289 12.2871 49.0898 12.2871C48.543 12.2871 48.0234 12.2129 47.5312 12.0645C47.043 11.9199 46.6113 11.7012 46.2363 11.4082C45.8652 11.1152 45.5703 10.75 45.3516 10.3125C45.1328 9.875 45.0234 9.36523 45.0234 8.7832C45.0352 8.41602 45.0957 8.07227 45.2051 7.75195C45.3145 7.43164 45.4648 7.14258 45.6562 6.88477C45.8516 6.62695 46.084 6.4082 46.3535 6.22852C46.627 6.04883 46.9316 5.91602 47.2676 5.83008C46.9902 5.72852 46.75 5.59375 46.5469 5.42578C46.3477 5.25781 46.1816 5.06445 46.0488 4.8457C45.916 4.62695 45.8164 4.38672 45.75 4.125C45.6875 3.85938 45.6562 3.58008 45.6562 3.28711C45.6562 2.80273 45.7539 2.38086 45.9492 2.02148C46.1445 1.6582 46.4023 1.35547 46.7227 1.11328C47.043 0.871094 47.4062 0.689453 47.8125 0.568359C48.2227 0.447266 48.6406 0.386719 49.0664 0.386719C49.5 0.386719 49.9219 0.447266 50.332 0.568359C50.7422 0.689453 51.1074 0.871094 51.4277 1.11328C51.752 1.35547 52.0117 1.6582 52.207 2.02148C52.4023 2.38086 52.5 2.80273 52.5 3.28711ZM49.0898 5.37891C49.3945 5.38672 49.6855 5.35156 49.9629 5.27344C50.2402 5.19141 50.4824 5.06445 50.6895 4.89258C50.9004 4.7207 51.0664 4.50195 51.1875 4.23633C51.3125 3.9707 51.375 3.6543 51.375 3.28711C51.375 2.9707 51.3184 2.69141 51.2051 2.44922C51.0957 2.20703 50.9395 2.00391 50.7363 1.83984C50.5371 1.67578 50.2969 1.55273 50.0156 1.4707C49.7344 1.38477 49.4258 1.3418 49.0898 1.3418C48.7773 1.3418 48.4805 1.38477 48.1992 1.4707C47.9219 1.55273 47.6777 1.67578 47.4668 1.83984C47.2598 2.00391 47.0938 2.20703 46.9688 2.44922C46.8477 2.69141 46.7871 2.9707 46.7871 3.28711C46.7871 3.66992 46.8496 3.99609 46.9746 4.26562C47.1035 4.53516 47.2734 4.75391 47.4844 4.92188C47.6992 5.08594 47.9453 5.20508 48.2227 5.2793C48.5 5.35352 48.7891 5.38672 49.0898 5.37891ZM58.9043 0.544922H60.1289V6.62695L66.7734 0.544922H68.3848L63.1055 5.29102L68.625 12H67.0605L62.2148 6.08789L60.1289 8.08008V12H58.9043V0.544922ZM68.6836 6.27539C68.6836 5.75195 68.7344 5.24219 68.8359 4.74609C68.9375 4.24609 69.0898 3.77539 69.293 3.33398C69.4961 2.88867 69.75 2.48242 70.0547 2.11523C70.3633 1.74414 70.7207 1.42578 71.127 1.16016C71.5371 0.890625 71.998 0.681641 72.5098 0.533203C73.0215 0.384766 73.5859 0.310547 74.2031 0.310547C74.8203 0.310547 75.3848 0.384766 75.8965 0.533203C76.4082 0.681641 76.8672 0.890625 77.2734 1.16016C77.6836 1.42578 78.041 1.74414 78.3457 2.11523C78.6543 2.48242 78.9102 2.88867 79.1133 3.33398C79.3164 3.77539 79.4688 4.24609 79.5703 4.74609C79.6719 5.24219 79.7227 5.75195 79.7227 6.27539C79.7227 6.79883 79.6719 7.31055 79.5703 7.81055C79.4688 8.30664 79.3164 8.77539 79.1133 9.2168C78.9102 9.6582 78.6543 10.0645 78.3457 10.4355C78.041 10.8027 77.6836 11.1211 77.2734 11.3906C76.8672 11.6562 76.4082 11.8633 75.8965 12.0117C75.3848 12.1602 74.8203 12.2344 74.2031 12.2344C73.5898 12.2344 73.0254 12.1602 72.5098 12.0117C71.998 11.8633 71.5371 11.6562 71.127 11.3906C70.7207 11.1211 70.3633 10.8027 70.0547 10.4355C69.75 10.0645 69.4961 9.6582 69.293 9.2168C69.0898 8.77539 68.9375 8.30664 68.8359 7.81055C68.7344 7.31055 68.6836 6.79883 68.6836 6.27539ZM69.9082 6.27539C69.9082 6.68945 69.9434 7.09961 70.0137 7.50586C70.084 7.91211 70.1914 8.29883 70.3359 8.66602C70.4844 9.0293 70.6738 9.36914 70.9043 9.68555C71.1348 9.99805 71.4082 10.2695 71.7246 10.5C72.0449 10.7266 72.4102 10.9043 72.8203 11.0332C73.2305 11.1621 73.6914 11.2266 74.2031 11.2266C74.7148 11.2266 75.1758 11.1621 75.5859 11.0332C76 10.9043 76.3652 10.7266 76.6816 10.5C77.002 10.2695 77.2754 9.99805 77.502 9.68555C77.7324 9.36914 77.9199 9.0293 78.0645 8.66602C78.2129 8.29883 78.3223 7.91211 78.3926 7.50586C78.4629 7.09961 78.498 6.68945 78.498 6.27539C78.498 5.86523 78.4629 5.45898 78.3926 5.05664C78.3223 4.65039 78.2129 4.26562 78.0645 3.90234C77.9199 3.53516 77.7324 3.19531 77.502 2.88281C77.2754 2.57031 77.002 2.30078 76.6816 2.07422C76.3652 1.84375 76 1.66406 75.5859 1.53516C75.1758 1.40625 74.7148 1.3418 74.2031 1.3418C73.6914 1.3418 73.2305 1.40625 72.8203 1.53516C72.4102 1.66406 72.0449 1.84375 71.7246 2.07422C71.4082 2.30078 71.1348 2.57031 70.9043 2.88281C70.6738 3.19531 70.4844 3.53516 70.3359 3.90234C70.1914 4.26562 70.084 4.65039 70.0137 5.05664C69.9434 5.45898 69.9082 5.86523 69.9082 6.27539ZM81.4512 0.544922H86.7773C87.2617 0.544922 87.7207 0.605469 88.1543 0.726562C88.5918 0.84375 88.9746 1.02734 89.3027 1.27734C89.6309 1.52344 89.8906 1.83789 90.082 2.2207C90.2773 2.59961 90.375 3.05078 90.375 3.57422C90.375 3.95312 90.3145 4.31641 90.1934 4.66406C90.0723 5.00781 89.9004 5.31836 89.6777 5.5957C89.4551 5.87305 89.1855 6.10742 88.8691 6.29883C88.5527 6.48633 88.1992 6.61133 87.8086 6.67383C87.9922 6.74805 88.1582 6.85938 88.3066 7.00781C88.459 7.15625 88.5918 7.31836 88.7051 7.49414C88.8223 7.66992 88.9199 7.8457 88.998 8.02148C89.0801 8.19727 89.1445 8.34766 89.1914 8.47266L89.9004 10.4297C89.9707 10.6289 90.0371 10.8027 90.0996 10.9512C90.1621 11.0996 90.2227 11.2344 90.2812 11.3555C90.3398 11.4727 90.4004 11.582 90.4629 11.6836C90.5254 11.7852 90.5918 11.8906 90.6621 12H89.3086C89.2383 11.9102 89.1719 11.8066 89.1094 11.6895C89.0469 11.5723 88.9863 11.4492 88.9277 11.3203C88.8691 11.1914 88.8145 11.0586 88.7637 10.9219C88.7129 10.7852 88.668 10.6484 88.6289 10.5117L87.9785 8.70703C87.9121 8.51953 87.8242 8.32617 87.7148 8.12695C87.6055 7.92773 87.4629 7.74414 87.2871 7.57617C87.1113 7.4082 86.8965 7.27148 86.6426 7.16602C86.3887 7.05664 86.084 7.00195 85.7285 7.00195H82.6758V12H81.4512V0.544922ZM82.6758 5.98828H86.4668C86.8223 5.98828 87.1621 5.93945 87.4863 5.8418C87.8105 5.74023 88.0957 5.5957 88.3418 5.4082C88.5918 5.2207 88.7891 4.99219 88.9336 4.72266C89.082 4.44922 89.1562 4.14258 89.1562 3.80273C89.1562 3.46289 89.1035 3.15625 88.998 2.88281C88.8965 2.60938 88.7422 2.37695 88.5352 2.18555C88.332 1.99023 88.0762 1.83984 87.7676 1.73438C87.459 1.62891 87.0977 1.57617 86.6836 1.57617H82.6758V5.98828ZM100.125 12L93.498 2.02148V12H92.3027V0.544922H93.791L100.318 10.4297V0.544922H101.514V12H100.125ZM103.254 6.27539C103.254 5.75195 103.305 5.24219 103.406 4.74609C103.508 4.24609 103.66 3.77539 103.863 3.33398C104.066 2.88867 104.32 2.48242 104.625 2.11523C104.934 1.74414 105.291 1.42578 105.697 1.16016C106.107 0.890625 106.568 0.681641 107.08 0.533203C107.592 0.384766 108.156 0.310547 108.773 0.310547C109.391 0.310547 109.955 0.384766 110.467 0.533203C110.979 0.681641 111.438 0.890625 111.844 1.16016C112.254 1.42578 112.611 1.74414 112.916 2.11523C113.225 2.48242 113.48 2.88867 113.684 3.33398C113.887 3.77539 114.039 4.24609 114.141 4.74609C114.242 5.24219 114.293 5.75195 114.293 6.27539C114.293 6.79883 114.242 7.31055 114.141 7.81055C114.039 8.30664 113.887 8.77539 113.684 9.2168C113.48 9.6582 113.225 10.0645 112.916 10.4355C112.611 10.8027 112.254 11.1211 111.844 11.3906C111.438 11.6562 110.979 11.8633 110.467 12.0117C109.955 12.1602 109.391 12.2344 108.773 12.2344C108.16 12.2344 107.596 12.1602 107.08 12.0117C106.568 11.8633 106.107 11.6562 105.697 11.3906C105.291 11.1211 104.934 10.8027 104.625 10.4355C104.32 10.0645 104.066 9.6582 103.863 9.2168C103.66 8.77539 103.508 8.30664 103.406 7.81055C103.305 7.31055 103.254 6.79883 103.254 6.27539ZM104.479 6.27539C104.479 6.68945 104.514 7.09961 104.584 7.50586C104.654 7.91211 104.762 8.29883 104.906 8.66602C105.055 9.0293 105.244 9.36914 105.475 9.68555C105.705 9.99805 105.979 10.2695 106.295 10.5C106.615 10.7266 106.98 10.9043 107.391 11.0332C107.801 11.1621 108.262 11.2266 108.773 11.2266C109.285 11.2266 109.746 11.1621 110.156 11.0332C110.57 10.9043 110.936 10.7266 111.252 10.5C111.572 10.2695 111.846 9.99805 112.072 9.68555C112.303 9.36914 112.49 9.0293 112.635 8.66602C112.783 8.29883 112.893 7.91211 112.963 7.50586C113.033 7.09961 113.068 6.68945 113.068 6.27539C113.068 5.86523 113.033 5.45898 112.963 5.05664C112.893 4.65039 112.783 4.26562 112.635 3.90234C112.49 3.53516 112.303 3.19531 112.072 2.88281C111.846 2.57031 111.572 2.30078 111.252 2.07422C110.936 1.84375 110.57 1.66406 110.156 1.53516C109.746 1.40625 109.285 1.3418 108.773 1.3418C108.262 1.3418 107.801 1.40625 107.391 1.53516C106.98 1.66406 106.615 1.84375 106.295 2.07422C105.979 2.30078 105.705 2.57031 105.475 2.88281C105.244 3.19531 105.055 3.53516 104.906 3.90234C104.762 4.26562 104.654 4.65039 104.584 5.05664C104.514 5.45898 104.479 5.86523 104.479 6.27539ZM116.021 0.544922H121.348C121.832 0.544922 122.291 0.605469 122.725 0.726562C123.162 0.84375 123.545 1.02734 123.873 1.27734C124.201 1.52344 124.461 1.83789 124.652 2.2207C124.848 2.59961 124.945 3.05078 124.945 3.57422C124.945 3.95312 124.885 4.31641 124.764 4.66406C124.643 5.00781 124.471 5.31836 124.248 5.5957C124.025 5.87305 123.756 6.10742 123.439 6.29883C123.123 6.48633 122.77 6.61133 122.379 6.67383C122.562 6.74805 122.729 6.85938 122.877 7.00781C123.029 7.15625 123.162 7.31836 123.275 7.49414C123.393 7.66992 123.49 7.8457 123.568 8.02148C123.65 8.19727 123.715 8.34766 123.762 8.47266L124.471 10.4297C124.541 10.6289 124.607 10.8027 124.67 10.9512C124.732 11.0996 124.793 11.2344 124.852 11.3555C124.91 11.4727 124.971 11.582 125.033 11.6836C125.096 11.7852 125.162 11.8906 125.232 12H123.879C123.809 11.9102 123.742 11.8066 123.68 11.6895C123.617 11.5723 123.557 11.4492 123.498 11.3203C123.439 11.1914 123.385 11.0586 123.334 10.9219C123.283 10.7852 123.238 10.6484 123.199 10.5117L122.549 8.70703C122.482 8.51953 122.395 8.32617 122.285 8.12695C122.176 7.92773 122.033 7.74414 121.857 7.57617C121.682 7.4082 121.467 7.27148 121.213 7.16602C120.959 7.05664 120.654 7.00195 120.299 7.00195H117.246V12H116.021V0.544922ZM117.246 5.98828H121.037C121.393 5.98828 121.732 5.93945 122.057 5.8418C122.381 5.74023 122.666 5.5957 122.912 5.4082C123.162 5.2207 123.359 4.99219 123.504 4.72266C123.652 4.44922 123.727 4.14258 123.727 3.80273C123.727 3.46289 123.674 3.15625 123.568 2.88281C123.467 2.60938 123.312 2.37695 123.105 2.18555C122.902 1.99023 122.646 1.83984 122.338 1.73438C122.029 1.62891 121.668 1.57617 121.254 1.57617H117.246V5.98828ZM127.254 2.80078C127.527 2.78516 127.787 2.76367 128.033 2.73633C128.283 2.70898 128.518 2.66602 128.736 2.60742C128.955 2.54883 129.156 2.46875 129.34 2.36719C129.527 2.26562 129.693 2.13477 129.838 1.97461C129.986 1.81055 130.113 1.61328 130.219 1.38281C130.328 1.14844 130.412 0.869141 130.471 0.544922H131.432V12H130.301V3.08789C130.121 3.22852 129.922 3.34375 129.703 3.43359C129.488 3.51953 129.254 3.58984 129 3.64453C128.746 3.69531 128.473 3.73242 128.18 3.75586C127.891 3.7793 127.582 3.79688 127.254 3.80859V2.80078ZM136.471 8.2793C136.451 8.73633 136.5 9.15039 136.617 9.52148C136.738 9.89258 136.918 10.2109 137.156 10.4766C137.398 10.7383 137.697 10.9414 138.053 11.0859C138.412 11.2305 138.82 11.3027 139.277 11.3027C139.648 11.3027 140.006 11.248 140.35 11.1387C140.697 11.0293 141.004 10.8691 141.27 10.6582C141.539 10.4473 141.754 10.1875 141.914 9.87891C142.074 9.56641 142.154 9.20898 142.154 8.80664C142.154 8.41211 142.086 8.07031 141.949 7.78125C141.816 7.48828 141.633 7.24805 141.398 7.06055C141.164 6.86914 140.887 6.72656 140.566 6.63281C140.246 6.53906 139.9 6.49219 139.529 6.49219H138.885V5.53125H139.529C139.787 5.53906 140.047 5.5 140.309 5.41406C140.574 5.32812 140.812 5.19727 141.023 5.02148C141.238 4.8457 141.412 4.625 141.545 4.35938C141.682 4.09375 141.75 3.78516 141.75 3.43359C141.75 3.0625 141.684 2.74414 141.551 2.47852C141.422 2.20898 141.244 1.98828 141.018 1.81641C140.791 1.64453 140.527 1.51953 140.227 1.44141C139.93 1.35938 139.613 1.31836 139.277 1.31836C138.852 1.31836 138.477 1.39062 138.152 1.53516C137.828 1.67578 137.557 1.875 137.338 2.13281C137.123 2.39062 136.961 2.69727 136.852 3.05273C136.746 3.4082 136.697 3.79883 136.705 4.22461H135.58C135.584 3.67383 135.674 3.16211 135.85 2.68945C136.025 2.2168 136.271 1.80859 136.588 1.46484C136.908 1.11719 137.293 0.845703 137.742 0.650391C138.191 0.455078 138.695 0.357422 139.254 0.357422C139.562 0.357422 139.865 0.382812 140.162 0.433594C140.463 0.484375 140.746 0.5625 141.012 0.667969C141.281 0.773438 141.529 0.908203 141.756 1.07227C141.982 1.23242 142.178 1.42188 142.342 1.64062C142.51 1.85938 142.641 2.10742 142.734 2.38477C142.828 2.66211 142.875 2.9707 142.875 3.31055C142.875 3.60352 142.836 3.88867 142.758 4.16602C142.68 4.43945 142.566 4.69336 142.418 4.92773C142.273 5.1582 142.094 5.36328 141.879 5.54297C141.668 5.72266 141.428 5.86328 141.158 5.96484C141.514 6.03516 141.824 6.15039 142.09 6.31055C142.355 6.4668 142.576 6.66406 142.752 6.90234C142.932 7.13672 143.064 7.4082 143.15 7.7168C143.24 8.02539 143.285 8.36523 143.285 8.73633C143.285 9.11133 143.236 9.45898 143.139 9.7793C143.041 10.0996 142.902 10.3906 142.723 10.6523C142.547 10.9141 142.336 11.1465 142.09 11.3496C141.848 11.5488 141.578 11.7168 141.281 11.8535C140.988 11.9863 140.674 12.0879 140.338 12.1582C140.002 12.2285 139.656 12.2637 139.301 12.2637C138.699 12.2637 138.146 12.1738 137.643 11.9941C137.139 11.8145 136.709 11.5547 136.354 11.2148C135.998 10.875 135.729 10.459 135.545 9.9668C135.365 9.4707 135.297 8.9082 135.34 8.2793H136.471ZM144.744 0.544922H152.209V1.44727C151.971 1.69727 151.691 2.01172 151.371 2.39062C151.051 2.76953 150.719 3.20703 150.375 3.70312C150.031 4.19922 149.691 4.75 149.355 5.35547C149.023 5.96094 148.725 6.61328 148.459 7.3125C148.197 8.01172 147.984 8.75391 147.82 9.53906C147.656 10.3242 147.574 11.1445 147.574 12H146.355C146.355 11.0156 146.455 10.0742 146.654 9.17578C146.854 8.27344 147.145 7.39648 147.527 6.54492C147.914 5.69336 148.389 4.86133 148.951 4.04883C149.514 3.23242 150.158 2.41797 150.885 1.60547H144.744V0.544922Z" fill="white"/>
</svg>
