<svg width="823" height="75" viewBox="0 0 823 75" fill="none" xmlns="http://www.w3.org/2000/svg">
    <path d="M10.568 11.04V10.04H9.568V11.04H10.568ZM10.568 34.944H9.568V35.944H10.568V34.944ZM10.568 42.912V41.912H9.568V42.912H10.568ZM1.256 3.07199V2.07199H0.256V3.07199H1.256ZM1.256 72H0.256V73H1.256V72ZM10.568 72V73H11.568V72H10.568ZM10.568 12.04H29.48V10.04H10.568V12.04ZM29.48 12.04C33.2292 12.04 36.3865 12.7249 38.5862 14.3315C40.7269 15.8951 42.112 18.4445 42.112 22.56H44.112C44.112 17.9395 42.5211 14.7289 39.7658 12.7165C37.0695 10.7471 33.4108 10.04 29.48 10.04V12.04ZM42.112 22.56C42.112 27.0033 40.7714 29.7666 38.6183 31.4575C36.4163 33.187 33.1807 33.944 29.096 33.944V35.944C33.3633 35.944 37.1357 35.165 39.8537 33.0304C42.6206 30.8574 44.112 27.4287 44.112 22.56H42.112ZM29.096 33.944H10.568V35.944H29.096V33.944ZM11.568 34.944V11.04H9.568V34.944H11.568ZM10.568 43.912H32.264V41.912H10.568V43.912ZM32.264 43.912C40.0192 43.912 45.4255 41.0898 48.8742 36.9259C52.297 32.7931 53.712 27.4368 53.712 22.464H51.712C51.712 27.0912 50.391 31.9589 47.3338 35.6501C44.3025 39.3102 39.4848 41.912 32.264 41.912V43.912ZM53.712 22.464C53.712 16.6613 51.7069 11.5451 47.977 7.87883C44.2462 4.2117 38.8685 2.07199 32.264 2.07199V4.07199C38.4275 4.07199 43.2738 6.06029 46.575 9.30516C49.8771 12.5509 51.712 17.1307 51.712 22.464H53.712ZM32.264 2.07199H1.256V4.07199H32.264V2.07199ZM0.256 3.07199V72H2.256V3.07199H0.256ZM1.256 73H10.568V71H1.256V73ZM11.568 72V42.912H9.568V72H11.568ZM137.535 37.536C137.535 45.4709 135.328 52.236 131.381 56.9978C127.45 61.7402 121.737 64.568 114.535 64.568V66.568C122.31 66.568 128.596 63.4918 132.921 58.2742C137.23 53.076 139.535 45.8251 139.535 37.536H137.535ZM114.535 64.568C107.334 64.568 101.62 61.7402 97.6891 56.9978C93.742 52.236 91.5353 45.4709 91.5353 37.536H89.5353C89.5353 45.8251 91.8405 53.076 96.1494 58.2742C100.474 63.4918 106.761 66.568 114.535 66.568V64.568ZM91.5353 37.536C91.5353 29.6011 93.742 22.836 97.6891 18.0742C101.62 13.3318 107.334 10.504 114.535 10.504V8.504C106.761 8.504 100.474 11.5802 96.1494 16.7978C91.8405 21.996 89.5353 29.2469 89.5353 37.536H91.5353ZM114.535 10.504C121.737 10.504 127.45 13.3318 131.381 18.0742C135.328 22.836 137.535 29.6011 137.535 37.536H139.535C139.535 29.2469 137.23 21.996 132.921 16.7978C128.596 11.5802 122.31 8.504 114.535 8.504V10.504ZM149.135 37.536C149.135 29.9467 147.132 20.6534 141.795 13.2283C136.424 5.75629 127.723 0.247995 114.535 0.247995V2.248C127.076 2.248 135.174 7.4437 140.171 14.3957C145.202 21.3946 147.135 30.2453 147.135 37.536H149.135ZM114.535 0.247995C101.348 0.247995 92.6462 5.75629 87.2753 13.2283C81.9381 20.6534 79.9353 29.9467 79.9353 37.536H81.9353C81.9353 30.2453 83.8684 21.3946 88.8992 14.3957C93.8963 7.4437 101.995 2.248 114.535 2.248V0.247995ZM79.9353 37.536C79.9353 45.1253 81.9381 54.4186 87.2753 61.8437C92.6462 69.3157 101.348 74.824 114.535 74.824V72.824C101.995 72.824 93.8963 67.6283 88.8992 60.6763C83.8684 53.6774 81.9353 44.8267 81.9353 37.536H79.9353ZM114.535 74.824C127.723 74.824 136.424 69.3157 141.795 61.8437C147.132 54.4186 149.135 45.1253 149.135 37.536H147.135C147.135 44.8267 145.202 53.6774 140.171 60.6763C135.174 67.6283 127.076 72.824 114.535 72.824V74.824ZM214.38 14.88V13.88H213.621L213.417 14.6113L214.38 14.88ZM214.572 14.88L215.536 14.6143L215.333 13.88H214.572V14.88ZM230.316 72L229.352 72.2657L229.554 73H230.316V72ZM240.108 72V73H240.879L241.075 72.2546L240.108 72ZM258.252 3.07199L259.219 3.32655L259.549 2.07199H258.252V3.07199ZM247.98 3.07199V2.07199H247.183L247.005 2.84835L247.98 3.07199ZM235.116 59.136V60.136H235.912L236.09 59.3596L235.116 59.136ZM234.924 59.136L233.96 59.4018L234.162 60.136H234.924V59.136ZM219.468 3.07199L220.432 2.80622L220.229 2.07199H219.468V3.07199ZM209.292 3.07199V2.07199H208.53L208.328 2.80622L209.292 3.07199ZM193.836 59.136V60.136H194.597L194.8 59.4018L193.836 59.136ZM193.644 59.136L192.669 59.3596L192.847 60.136H193.644V59.136ZM180.78 3.07199L181.754 2.84835L181.576 2.07199H180.78V3.07199ZM170.7 3.07199V2.07199H169.406L169.732 3.32403L170.7 3.07199ZM188.652 72L187.684 72.252L187.879 73H188.652V72ZM198.444 72V73H199.203L199.407 72.2687L198.444 72ZM214.38 15.88H214.572V13.88H214.38V15.88ZM213.608 15.1457L229.352 72.2657L231.28 71.7343L215.536 14.6143L213.608 15.1457ZM230.316 73H240.108V71H230.316V73ZM241.075 72.2546L259.219 3.32655L257.285 2.81744L239.141 71.7454L241.075 72.2546ZM258.252 2.07199H247.98V4.07199H258.252V2.07199ZM247.005 2.84835L234.141 58.9124L236.09 59.3596L248.954 3.29564L247.005 2.84835ZM235.116 58.136H234.924V60.136H235.116V58.136ZM235.888 58.8702L220.432 2.80622L218.504 3.33777L233.96 59.4018L235.888 58.8702ZM219.468 2.07199H209.292V4.07199H219.468V2.07199ZM208.328 2.80622L192.872 58.8702L194.8 59.4018L210.256 3.33777L208.328 2.80622ZM193.836 58.136H193.644V60.136H193.836V58.136ZM194.618 58.9124L181.754 2.84835L179.805 3.29564L192.669 59.3596L194.618 58.9124ZM180.78 2.07199H170.7V4.07199H180.78V2.07199ZM169.732 3.32403L187.684 72.252L189.619 71.748L171.667 2.81996L169.732 3.32403ZM188.652 73H198.444V71H188.652V73ZM199.407 72.2687L215.343 15.1487L213.417 14.6113L197.481 71.7313L199.407 72.2687ZM339.116 63.744H340.116V62.744H339.116V63.744ZM297.548 63.744H296.548V64.744H297.548V63.744ZM297.548 40.704V39.704H296.548V40.704H297.548ZM335.276 40.704V41.704H336.276V40.704H335.276ZM335.276 32.448H336.276V31.448H335.276V32.448ZM297.548 32.448H296.548V33.448H297.548V32.448ZM297.548 11.328V10.328H296.548V11.328H297.548ZM338.444 11.328V12.328H339.444V11.328H338.444ZM338.444 3.07199H339.444V2.07199H338.444V3.07199ZM288.236 3.07199V2.07199H287.236V3.07199H288.236ZM288.236 72H287.236V73H288.236V72ZM339.116 72V73H340.116V72H339.116ZM339.116 62.744H297.548V64.744H339.116V62.744ZM298.548 63.744V40.704H296.548V63.744H298.548ZM297.548 41.704H335.276V39.704H297.548V41.704ZM336.276 40.704V32.448H334.276V40.704H336.276ZM335.276 31.448H297.548V33.448H335.276V31.448ZM298.548 32.448V11.328H296.548V32.448H298.548ZM297.548 12.328H338.444V10.328H297.548V12.328ZM339.444 11.328V3.07199H337.444V11.328H339.444ZM338.444 2.07199H288.236V4.07199H338.444V2.07199ZM287.236 3.07199V72H289.236V3.07199H287.236ZM288.236 73H339.116V71H288.236V73ZM340.116 72V63.744H338.116V72H340.116ZM381.931 42.432V41.432H380.931V42.432H381.931ZM418.411 72L417.458 72.3032L417.68 73H418.411V72ZM429.835 72V73H430.835V72H429.835ZM429.835 70.464H430.835V69.8813L430.328 69.594L429.835 70.464ZM426.379 63.552L427.379 63.527L427.379 63.5164L427.378 63.5059L426.379 63.552ZM425.803 51.072L424.804 51.112L424.804 51.1181L425.803 51.072ZM417.547 38.112L417.041 37.2496L415.309 38.2664L417.164 39.0357L417.547 38.112ZM372.619 3.07199V2.07199H371.619V3.07199H372.619ZM372.619 72H371.619V73H372.619V72ZM381.931 72V73H382.931V72H381.931ZM381.931 11.04V10.04H380.931V11.04H381.931ZM381.931 34.464H380.931V35.464H381.931V34.464ZM381.931 43.432H404.491V41.432H381.931V43.432ZM404.491 43.432C409.857 43.432 412.565 45.0168 413.996 47.0313C415.481 49.1205 415.779 51.9107 415.779 54.72H417.779C417.779 51.8653 417.502 48.5115 415.626 45.8727C413.698 43.1592 410.261 41.432 404.491 41.432V43.432ZM415.779 54.72C415.779 56.0383 415.852 59.3253 416.094 62.817C416.333 66.2728 416.745 70.0605 417.458 72.3032L419.364 71.6968C418.734 69.7155 418.33 66.1592 418.089 62.679C417.851 59.2347 417.779 55.9937 417.779 54.72H415.779ZM418.411 73H429.835V71H418.411V73ZM430.835 72V70.464H428.835V72H430.835ZM430.328 69.594C428.976 68.8276 428.335 68.1897 427.968 67.4097C427.575 66.5757 427.427 65.449 427.379 63.527L425.38 63.577C425.428 65.495 425.568 67.0083 426.159 68.2623C426.775 69.5703 427.815 70.4684 429.342 71.334L430.328 69.594ZM427.378 63.5059L426.802 51.0259L424.804 51.1181L425.38 63.5981L427.378 63.5059ZM426.802 51.032C426.605 46.1063 425.491 43.0304 423.777 40.9653C422.075 38.9156 419.883 37.9977 417.93 37.1883L417.164 39.0357C419.148 39.8583 420.891 40.6204 422.238 42.2427C423.572 43.8496 424.617 46.4377 424.804 51.112L426.802 51.032ZM418.053 38.9744C420.288 37.6626 422.837 35.9939 424.811 33.2895C426.8 30.5648 428.147 26.8715 428.147 21.6H426.147C426.147 26.5044 424.903 29.7712 423.196 32.1105C421.473 34.4701 419.222 35.9694 417.041 37.2496L418.053 38.9744ZM428.147 21.6C428.147 13.9996 425.172 9.03957 420.619 6.02978C416.135 3.0657 410.241 2.07199 404.491 2.07199V4.07199C410.069 4.07199 415.504 5.04629 419.516 7.69821C423.459 10.3044 426.147 14.6084 426.147 21.6H428.147ZM404.491 2.07199H372.619V4.07199H404.491V2.07199ZM371.619 3.07199V72H373.619V3.07199H371.619ZM372.619 73H381.931V71H372.619V73ZM382.931 72V42.432H380.931V72H382.931ZM381.931 12.04H405.163V10.04H381.931V12.04ZM405.163 12.04C407.441 12.04 410.292 12.2632 412.56 13.6561C414.733 14.9909 416.547 17.5152 416.547 22.56H418.547C418.547 16.9488 416.474 13.7131 413.607 11.9519C410.834 10.2487 407.494 10.04 405.163 10.04V12.04ZM416.547 22.56C416.547 27.3768 414.867 30.0012 412.555 31.4867C410.154 33.0291 406.894 33.464 403.531 33.464V35.464C406.984 35.464 410.732 35.0349 413.636 33.1693C416.628 31.2468 418.547 27.9192 418.547 22.56H416.547ZM403.531 33.464H381.931V35.464H403.531V33.464ZM382.931 34.464V11.04H380.931V34.464H382.931ZM512.749 63.744H513.749V62.744H512.749V63.744ZM471.181 63.744H470.181V64.744H471.181V63.744ZM471.181 40.704V39.704H470.181V40.704H471.181ZM508.909 40.704V41.704H509.909V40.704H508.909ZM508.909 32.448H509.909V31.448H508.909V32.448ZM471.181 32.448H470.181V33.448H471.181V32.448ZM471.181 11.328V10.328H470.181V11.328H471.181ZM512.077 11.328V12.328H513.077V11.328H512.077ZM512.077 3.07199H513.077V2.07199H512.077V3.07199ZM461.869 3.07199V2.07199H460.869V3.07199H461.869ZM461.869 72H460.869V73H461.869V72ZM512.749 72V73H513.749V72H512.749ZM512.749 62.744H471.181V64.744H512.749V62.744ZM472.181 63.744V40.704H470.181V63.744H472.181ZM471.181 41.704H508.909V39.704H471.181V41.704ZM509.909 40.704V32.448H507.909V40.704H509.909ZM508.909 31.448H471.181V33.448H508.909V31.448ZM472.181 32.448V11.328H470.181V32.448H472.181ZM471.181 12.328H512.077V10.328H471.181V12.328ZM513.077 11.328V3.07199H511.077V11.328H513.077ZM512.077 2.07199H461.869V4.07199H512.077V2.07199ZM460.869 3.07199V72H462.869V3.07199H460.869ZM461.869 73H512.749V71H461.869V73ZM513.749 72V63.744H511.749V72H513.749ZM545.58 72H544.58V73H545.58V72ZM545.58 3.07199V2.07199H544.58V3.07199H545.58ZM554.892 11.04V10.04H553.892V11.04H554.892ZM554.892 64.032H553.892V65.032H554.892V64.032ZM545.58 73H573.132V71H545.58V73ZM573.132 73C584.812 73 592.465 67.8255 597.154 60.63C601.806 53.49 603.508 44.4222 603.508 36.576H601.508C601.508 44.1858 599.849 52.83 595.478 59.538C591.143 66.1905 584.108 71 573.132 71V73ZM603.508 36.576C603.508 26.4621 600.698 17.838 595.506 11.7247C590.299 5.59393 582.765 2.07199 573.516 2.07199V4.07199C582.219 4.07199 589.18 7.36606 593.982 13.0193C598.798 18.69 601.508 26.8179 601.508 36.576H603.508ZM573.516 2.07199H545.58V4.07199H573.516V2.07199ZM544.58 3.07199V72H546.58V3.07199H544.58ZM554.892 12.04H572.268V10.04H554.892V12.04ZM572.268 12.04C578.357 12.04 583.212 14.1279 586.567 18.2145C589.945 22.3299 591.908 28.6005 591.908 37.152H593.908C593.908 28.3275 591.886 21.5421 588.113 16.9455C584.316 12.3201 578.85 10.04 572.268 10.04V12.04ZM591.908 37.152C591.908 45.7047 589.969 52.1836 586.666 56.5003C583.387 60.7847 578.698 63.032 572.94 63.032V65.032C579.278 65.032 584.572 62.5273 588.254 57.7157C591.911 52.9364 593.908 45.9753 593.908 37.152H591.908ZM572.94 63.032H554.892V65.032H572.94V63.032ZM555.892 64.032V11.04H553.892V64.032H555.892ZM690.54 11.04V10.04H689.54V11.04H690.54ZM690.54 32.256H689.54V33.256H690.54V32.256ZM681.228 72H680.228V73H681.228V72ZM721.836 34.848L721.412 33.9424L719.334 34.9154L721.461 35.7751L721.836 34.848ZM681.228 3.07199V2.07199H680.228V3.07199H681.228ZM690.54 39.84V38.84H689.54V39.84H690.54ZM690.54 64.032H689.54V65.032H690.54V64.032ZM690.54 12.04H707.436V10.04H690.54V12.04ZM707.436 12.04C712.537 12.04 715.851 12.9441 717.874 14.467C719.836 15.9435 720.74 18.1233 720.74 21.12H722.74C722.74 17.6847 721.675 14.8245 719.077 12.869C716.541 10.9599 712.702 10.04 707.436 10.04V12.04ZM720.74 21.12C720.74 25.1054 719.467 27.5396 717.317 29.0351C715.089 30.585 711.743 31.256 707.34 31.256V33.256C711.864 33.256 715.719 32.583 718.459 30.6769C721.277 28.7164 722.74 25.5826 722.74 21.12H720.74ZM707.34 31.256H690.54V33.256H707.34V31.256ZM691.54 32.256V11.04H689.54V32.256H691.54ZM681.228 73H710.892V71H681.228V73ZM710.892 73C718.73 73 724.847 70.6055 729.012 66.6929C733.178 62.7802 735.316 57.4203 735.316 51.648H733.316C733.316 56.9157 731.373 61.7318 727.643 65.2351C723.913 68.7385 718.318 71 710.892 71V73ZM735.316 51.648C735.316 45.4866 733.223 41.4809 730.466 38.7885C727.751 36.1367 724.451 34.8268 722.211 33.9209L721.461 35.7751C723.732 36.6932 726.673 37.8793 729.069 40.2195C731.424 42.5191 733.316 46.0014 733.316 51.648H735.316ZM722.26 35.7536C730.308 31.9843 732.052 25.206 732.052 20.448H730.052C730.052 24.714 728.532 30.6077 721.412 33.9424L722.26 35.7536ZM732.052 20.448C732.052 15.5065 730.309 10.8925 726.828 7.51441C723.345 4.13385 718.207 2.07199 711.564 2.07199V4.07199C717.785 4.07199 722.39 5.99414 725.435 8.94958C728.483 11.9075 730.052 15.9815 730.052 20.448H732.052ZM711.564 2.07199H681.228V4.07199H711.564V2.07199ZM680.228 3.07199V72H682.228V3.07199H680.228ZM690.54 40.84H708.876V38.84H690.54V40.84ZM708.876 40.84C712.618 40.84 716.444 41.32 719.303 42.8887C720.716 43.6639 721.878 44.6966 722.691 46.0623C723.505 47.4276 724.004 49.1828 724.004 51.456H726.004C726.004 48.8812 725.435 46.7604 724.409 45.0387C723.384 43.3174 721.936 42.0521 720.265 41.1353C716.956 39.32 712.717 38.84 708.876 38.84V40.84ZM724.004 51.456C724.004 55.0765 722.857 57.9244 720.676 59.8794C718.48 61.848 715.102 63.032 710.412 63.032V65.032C715.417 65.032 719.335 63.768 722.011 61.3686C724.703 58.9556 726.004 55.5155 726.004 51.456H724.004ZM710.412 63.032H690.54V65.032H710.412V63.032ZM691.54 64.032V39.84H689.54V64.032H691.54ZM794.987 44.256L794.142 43.7219L793.987 43.9666V44.256H794.987ZM821.003 3.07199L821.848 3.60606L822.818 2.07199H821.003V3.07199ZM810.059 3.07199V2.07199H809.491L809.2 2.55933L810.059 3.07199ZM790.283 36.192L789.424 36.7047L790.283 38.1426L791.142 36.7047L790.283 36.192ZM770.507 3.07199L771.366 2.55933L771.075 2.07199H770.507V3.07199ZM759.659 3.07199V2.07199H757.844L758.814 3.60606L759.659 3.07199ZM785.675 44.256H786.675V43.9666L786.52 43.7219L785.675 44.256ZM785.675 72H784.675V73H785.675V72ZM794.987 72V73H795.987V72H794.987ZM795.832 44.7901L821.848 3.60606L820.158 2.53793L794.142 43.7219L795.832 44.7901ZM821.003 2.07199H810.059V4.07199H821.003V2.07199ZM809.2 2.55933L789.424 35.6793L791.142 36.7047L810.918 3.58466L809.2 2.55933ZM791.142 35.6793L771.366 2.55933L769.648 3.58466L789.424 36.7047L791.142 35.6793ZM770.507 2.07199H759.659V4.07199H770.507V2.07199ZM758.814 3.60606L784.83 44.7901L786.52 43.7219L760.504 2.53793L758.814 3.60606ZM784.675 44.256V72H786.675V44.256H784.675ZM785.675 73H794.987V71H785.675V73ZM795.987 72V44.256H793.987V72H795.987Z" fill="#EE4B81"/>
    <path d="M215.464 45.424H226.472C238.824 45.424 241.128 34.928 241.128 30.768C241.128 21.744 235.752 16.048 226.856 16.048H205.864V62H215.464V45.424ZM215.464 37.488V23.984H223.08C229.032 23.984 231.528 25.84 231.528 30.32C231.528 32.368 231.528 37.488 224.36 37.488H215.464ZM246.504 39.024C246.504 60.592 262.503 63.216 268.584 63.216C274.664 63.216 290.664 60.592 290.664 39.024C290.664 17.456 274.664 14.832 268.584 14.832C262.503 14.832 246.504 17.456 246.504 39.024ZM256.104 39.024C256.104 26.16 263.4 22.96 268.584 22.96C273.768 22.96 281.064 26.16 281.064 39.024C281.064 51.888 273.768 55.088 268.584 55.088C263.4 55.088 256.104 51.888 256.104 39.024ZM304.329 62H313.289C318.217 38.32 318.985 34.992 320.393 26.16H320.521C322.057 34.992 322.889 39.472 327.625 62H336.841L349.769 16.048H340.041C334.089 41.328 333.321 45.296 332.553 49.648H332.425C331.401 43.696 330.953 41.264 325.576 16.048H315.401C310.537 40.176 309.833 44.848 309.001 49.648H308.873C308.041 44.4 307.465 41.2 301.577 16.048H291.337L304.329 62ZM389.406 16.048H355.614V62H390.494V53.872H365.022V41.968H387.422V33.84H365.022V24.176H389.406V16.048ZM398.302 62H407.71V44.016H417.63C424.734 44.016 425.118 46.448 425.118 52.72C425.118 57.456 425.502 59.824 426.142 62H436.766V60.784C434.718 60.016 434.718 58.352 434.718 51.632C434.718 43.056 432.67 41.648 428.894 39.984C433.438 38.448 435.998 34.096 435.998 29.04C435.998 25.072 433.758 16.048 421.534 16.048H398.302V62ZM407.71 36.272V23.984H419.678C425.31 23.984 426.398 27.568 426.398 30C426.398 34.544 423.966 36.272 418.974 36.272H407.71ZM478.281 16.048H444.489V62H479.369V53.872H453.897V41.968H476.297V33.84H453.897V24.176H478.281V16.048ZM487.177 62H507.081C522.249 62 526.153 47.792 526.153 37.936C526.153 29.232 522.953 16.048 507.465 16.048H487.177V62ZM496.585 23.984H505.801C509.897 23.984 516.361 25.072 516.361 38.64C516.361 46.192 513.737 54.064 505.929 54.064H496.585V23.984ZM551.177 62H570.633C580.041 62 582.537 60.4 585.161 57.84C587.593 55.472 589.129 52.016 589.129 48.368C589.129 43.824 587.657 39.344 582.025 37.232C583.944 36.272 587.657 34.416 587.657 27.824C587.657 23.088 584.777 16.048 573.513 16.048H551.177V62ZM560.393 41.776H572.617C576.073 41.776 579.529 43.312 579.529 47.344C579.529 52.016 576.841 54.064 572.169 54.064H560.393V41.776ZM560.393 23.984H571.401C575.753 23.984 578.441 25.136 578.441 28.912C578.441 32.56 575.433 34.032 571.657 34.032H560.393V23.984ZM618.932 44.784L634.292 16.048H623.412L614.324 36.016L604.788 16.048H593.46L609.332 44.656V62H618.932V44.784Z" fill="white"/>
</svg>
