<svg width="305" height="75" viewBox="0 0 305 75" fill="none" xmlns="http://www.w3.org/2000/svg">
    <path d="M54.6 23.232V24.232H55.6519L55.5987 23.1814L54.6 23.232ZM18.696 38.784L18.4681 39.7577L18.4707 39.7583L18.696 38.784ZM32.808 42.048L33.0389 41.075L33.0333 41.0737L32.808 42.048ZM10.44 49.728H11.44V48.728H10.44V49.728ZM1.704 49.728V48.728H0.704V49.728H1.704ZM8.712 67.2L9.38352 66.459L9.38164 66.4573L8.712 67.2ZM40.872 34.56L41.1022 33.5868L41.0955 33.5853L40.872 34.56ZM21.192 30.048L20.9604 31.0208L20.9685 31.0227L21.192 30.048ZM45.864 23.232L44.865 23.277L44.908 24.232H45.864V23.232ZM55.5987 23.1814C55.4042 19.3389 54.6969 13.5728 50.8311 8.76905C46.9282 3.91928 39.9747 0.247995 27.72 0.247995V2.248C39.5614 2.248 45.8558 5.77671 49.2729 10.0229C52.7271 14.3152 53.4118 19.5411 53.6013 23.2826L55.5987 23.1814ZM27.72 0.247995C19.1479 0.247995 12.9415 2.96424 8.88 7.17802C4.82986 11.38 3.008 16.9727 3.008 22.56H5.008C5.008 17.3953 6.69014 12.3319 10.32 8.56597C13.9385 4.81175 19.5881 2.248 27.72 2.248V0.247995ZM3.008 22.56C3.008 28.8957 5.71669 32.9687 9.04501 35.5645C12.3282 38.1251 16.1737 39.2207 18.4681 39.7577L18.9239 37.8103C16.7063 37.2913 13.2078 36.2749 10.275 33.9875C7.38731 31.7353 5.008 28.2243 5.008 22.56H3.008ZM18.4707 39.7583L32.5827 43.0223L33.0333 41.0737L18.9213 37.8097L18.4707 39.7583ZM32.5771 43.021C38.2592 44.3693 41.7165 45.5792 43.7738 47.2317C45.7114 48.7879 46.496 50.8192 46.496 54.24H48.496C48.496 50.4608 47.6007 47.7401 45.0262 45.6723C42.5715 43.7008 38.6848 42.4147 33.0389 41.075L32.5771 43.021ZM46.496 54.24C46.496 56.5068 45.8517 58.2554 44.8217 59.6256C43.782 61.0087 42.3084 62.0597 40.5784 62.8455C37.0976 64.4267 32.7529 64.856 29.448 64.856V66.856C32.8631 66.856 37.5424 66.4213 41.4056 64.6665C43.3476 63.7843 45.126 62.5493 46.4204 60.8274C47.7243 59.0926 48.496 56.9172 48.496 54.24H46.496ZM29.448 64.856C25.1436 64.856 20.6148 63.9629 17.193 61.6442C13.8289 59.3645 11.44 55.6477 11.44 49.728H9.44C9.44 56.2883 12.1391 60.6355 16.071 63.2998C19.9452 65.9251 24.9204 66.856 29.448 66.856V64.856ZM10.44 48.728H1.704V50.728H10.44V48.728ZM0.704 49.728C0.704 56.3148 1.89656 62.4014 8.04236 67.9427L9.38164 66.4573C3.81544 61.4386 2.704 56.0052 2.704 49.728H0.704ZM8.04048 67.941C9.62012 69.3725 11.7362 71.1131 15.1165 72.4828C18.4873 73.8487 23.0593 74.824 29.544 74.824V72.824C23.2607 72.824 18.9527 71.8793 15.8675 70.6292C12.7918 69.3829 10.8759 67.8115 9.38352 66.459L8.04048 67.941ZM29.544 74.824C35.5473 74.824 42.4938 73.6814 47.9754 70.385C53.5185 67.0515 57.52 61.5317 57.52 52.992H55.52C55.52 60.7723 51.9375 65.6685 46.9446 68.671C41.8902 71.7106 35.3487 72.824 29.544 72.824V74.824ZM57.52 52.992C57.52 47.2982 55.7642 42.9632 52.7728 39.7793C49.8 36.6151 45.6862 34.6712 41.1022 33.5869L40.6418 35.5331C44.9858 36.5608 48.696 38.3609 51.3152 41.1487C53.9158 43.9168 55.52 47.7418 55.52 52.992H57.52ZM41.0955 33.5853L21.4155 29.0733L20.9685 31.0227L40.6485 35.5347L41.0955 33.5853ZM21.4236 29.0752C19.4553 28.6065 17.6064 27.9323 16.2552 26.7605C14.9515 25.63 14.032 23.9682 14.032 21.312H12.032C12.032 24.5118 13.1765 26.738 14.9448 28.2715C16.6656 29.7637 18.8967 30.5294 20.9604 31.0208L21.4236 29.0752ZM14.032 21.312C14.032 18.8598 14.6091 16.9848 15.5158 15.5387C16.4247 14.089 17.7003 13.0141 19.1801 12.2215C22.1686 10.6209 25.9084 10.216 28.776 10.216V8.216C25.7876 8.216 21.6554 8.62705 18.2359 10.4585C16.5117 11.3819 14.9493 12.677 13.8213 14.4763C12.6909 16.2792 12.032 18.5322 12.032 21.312H14.032ZM28.776 10.216C32.5422 10.216 36.4776 11.0331 39.4992 13.0586C42.4735 15.0525 44.6392 18.2639 44.865 23.277L46.863 23.187C46.6088 17.5441 44.1185 13.7475 40.6128 11.3974C37.1544 9.07892 32.7858 8.216 28.776 8.216V10.216ZM45.864 24.232H54.6V22.232H45.864V24.232ZM140.327 63.744H141.327V62.744H140.327V63.744ZM98.7593 63.744H97.7593V64.744H98.7593V63.744ZM98.7593 40.704V39.704H97.7593V40.704H98.7593ZM136.487 40.704V41.704H137.487V40.704H136.487ZM136.487 32.448H137.487V31.448H136.487V32.448ZM98.7593 32.448H97.7593V33.448H98.7593V32.448ZM98.7593 11.328V10.328H97.7593V11.328H98.7593ZM139.655 11.328V12.328H140.655V11.328H139.655ZM139.655 3.07199H140.655V2.07199H139.655V3.07199ZM89.4473 3.07199V2.07199H88.4473V3.07199H89.4473ZM89.4473 72H88.4473V73H89.4473V72ZM140.327 72V73H141.327V72H140.327ZM140.327 62.744H98.7593V64.744H140.327V62.744ZM99.7593 63.744V40.704H97.7593V63.744H99.7593ZM98.7593 41.704H136.487V39.704H98.7593V41.704ZM137.487 40.704V32.448H135.487V40.704H137.487ZM136.487 31.448H98.7593V33.448H136.487V31.448ZM99.7593 32.448V11.328H97.7593V32.448H99.7593ZM98.7593 12.328H139.655V10.328H98.7593V12.328ZM140.655 11.328V3.07199H138.655V11.328H140.655ZM139.655 2.07199H89.4473V4.07199H139.655V2.07199ZM88.4473 3.07199V72H90.4473V3.07199H88.4473ZM89.4473 73H140.327V71H89.4473V73ZM141.327 72V63.744H139.327V72H141.327ZM166.727 11.328H165.727V12.328H166.727V11.328ZM190.055 11.328H191.055V10.328H190.055V11.328ZM190.055 72H189.055V73H190.055V72ZM199.367 72V73H200.367V72H199.367ZM199.367 11.328V10.328H198.367V11.328H199.367ZM222.695 11.328V12.328H223.695V11.328H222.695ZM222.695 3.07199H223.695V2.07199H222.695V3.07199ZM166.727 3.07199V2.07199H165.727V3.07199H166.727ZM166.727 12.328H190.055V10.328H166.727V12.328ZM189.055 11.328V72H191.055V11.328H189.055ZM190.055 73H199.367V71H190.055V73ZM200.367 72V11.328H198.367V72H200.367ZM199.367 12.328H222.695V10.328H199.367V12.328ZM223.695 11.328V3.07199H221.695V11.328H223.695ZM222.695 2.07199H166.727V4.07199H222.695V2.07199ZM165.727 3.07199V11.328H167.727V3.07199H165.727ZM301.83 23.232V24.232H302.882L302.829 23.1814L301.83 23.232ZM265.926 38.784L265.698 39.7577L265.701 39.7583L265.926 38.784ZM280.038 42.048L280.269 41.075L280.263 41.0737L280.038 42.048ZM257.67 49.728H258.67V48.728H257.67V49.728ZM248.934 49.728V48.728H247.934V49.728H248.934ZM255.942 67.2L256.614 66.459L256.612 66.4573L255.942 67.2ZM288.102 34.56L288.332 33.5868L288.325 33.5853L288.102 34.56ZM268.422 30.048L268.19 31.0208L268.199 31.0227L268.422 30.048ZM293.094 23.232L292.095 23.277L292.138 24.232H293.094V23.232ZM302.829 23.1814C302.634 19.3389 301.927 13.5728 298.061 8.76905C294.158 3.91928 287.205 0.247995 274.95 0.247995V2.248C286.791 2.248 293.086 5.77671 296.503 10.0229C299.957 14.3152 300.642 19.5411 300.831 23.2826L302.829 23.1814ZM274.95 0.247995C266.378 0.247995 260.171 2.96424 256.11 7.17802C252.06 11.38 250.238 16.9727 250.238 22.56H252.238C252.238 17.3953 253.92 12.3319 257.55 8.56597C261.169 4.81175 266.818 2.248 274.95 2.248V0.247995ZM250.238 22.56C250.238 28.8957 252.947 32.9687 256.275 35.5645C259.558 38.1251 263.404 39.2207 265.698 39.7577L266.154 37.8103C263.936 37.2913 260.438 36.2749 257.505 33.9875C254.617 31.7353 252.238 28.2243 252.238 22.56H250.238ZM265.701 39.7583L279.813 43.0223L280.263 41.0737L266.151 37.8097L265.701 39.7583ZM279.807 43.021C285.489 44.3693 288.946 45.5792 291.004 47.2317C292.941 48.7879 293.726 50.8192 293.726 54.24H295.726C295.726 50.4608 294.831 47.7401 292.256 45.6723C289.802 43.7008 285.915 42.4147 280.269 41.075L279.807 43.021ZM293.726 54.24C293.726 56.5068 293.082 58.2554 292.052 59.6256C291.012 61.0087 289.538 62.0597 287.808 62.8455C284.328 64.4267 279.983 64.856 276.678 64.856V66.856C280.093 66.856 284.772 66.4213 288.636 64.6665C290.578 63.7843 292.356 62.5493 293.65 60.8274C294.954 59.0926 295.726 56.9172 295.726 54.24H293.726ZM276.678 64.856C272.374 64.856 267.845 63.9629 264.423 61.6442C261.059 59.3645 258.67 55.6477 258.67 49.728H256.67C256.67 56.2883 259.369 60.6355 263.301 63.2998C267.175 65.9251 272.15 66.856 276.678 66.856V64.856ZM257.67 48.728H248.934V50.728H257.67V48.728ZM247.934 49.728C247.934 56.3148 249.127 62.4014 255.272 67.9427L256.612 66.4573C251.045 61.4386 249.934 56.0052 249.934 49.728H247.934ZM255.27 67.941C256.85 69.3725 258.966 71.1131 262.346 72.4828C265.717 73.8487 270.289 74.824 276.774 74.824V72.824C270.491 72.824 266.183 71.8793 263.098 70.6292C260.022 69.3829 258.106 67.8115 256.614 66.459L255.27 67.941ZM276.774 74.824C282.777 74.824 289.724 73.6814 295.205 70.385C300.749 67.0515 304.75 61.5317 304.75 52.992H302.75C302.75 60.7723 299.167 65.6685 294.175 68.671C289.12 71.7106 282.579 72.824 276.774 72.824V74.824ZM304.75 52.992C304.75 47.2982 302.994 42.9632 300.003 39.7793C297.03 36.6151 292.916 34.6712 288.332 33.5869L287.872 35.5331C292.216 36.5608 295.926 38.3609 298.545 41.1487C301.146 43.9168 302.75 47.7418 302.75 52.992H304.75ZM288.325 33.5853L268.645 29.0733L268.199 31.0227L287.879 35.5347L288.325 33.5853ZM268.654 29.0752C266.685 28.6065 264.836 27.9323 263.485 26.7605C262.181 25.63 261.262 23.9682 261.262 21.312H259.262C259.262 24.5118 260.407 26.738 262.175 28.2715C263.896 29.7637 266.127 30.5294 268.19 31.0208L268.654 29.0752ZM261.262 21.312C261.262 18.8598 261.839 16.9848 262.746 15.5387C263.655 14.089 264.93 13.0141 266.41 12.2215C269.399 10.6209 273.138 10.216 276.006 10.216V8.216C273.018 8.216 268.885 8.62705 265.466 10.4585C263.742 11.3819 262.179 12.677 261.051 14.4763C259.921 16.2792 259.262 18.5322 259.262 21.312H261.262ZM276.006 10.216C279.772 10.216 283.708 11.0331 286.729 13.0586C289.704 15.0525 291.869 18.2639 292.095 23.277L294.093 23.187C293.839 17.5441 291.349 13.7475 287.843 11.3974C284.384 9.07892 280.016 8.216 276.006 8.216V10.216ZM293.094 24.232H301.83V22.232H293.094V24.232Z" fill="#EE4B81"/>
    <path d="M72.496 47.856C72.496 53.552 75.376 63.216 92.144 63.216C96.176 63.216 110.256 62 110.256 48.176C110.256 39.92 104.496 37.36 98.224 35.824L87.024 33.072C85.104 32.624 82.16 31.856 82.16 28.272C82.16 24.112 86.512 22.768 90.16 22.768C98.544 22.768 99.312 27.632 99.568 29.68H108.784C108.72 24.048 104.944 14.832 90.864 14.832C75.952 14.832 73.2 23.856 73.2 28.976C73.2 39.088 80.368 40.752 87.792 42.48L92.72 43.632C97.584 44.784 101.04 45.744 101.04 49.328C101.04 54.192 95.984 55.28 91.44 55.28C83.056 55.28 81.776 50.416 81.712 47.856H72.496ZM151.344 16.048H117.552V62H152.432V53.872H126.96V41.968H149.36V33.84H126.96V24.176H151.344V16.048ZM179.759 24.176H193.647V16.048H156.271V24.176H170.159V62H179.759V24.176ZM196.996 47.856C196.996 53.552 199.876 63.216 216.644 63.216C220.676 63.216 234.756 62 234.756 48.176C234.756 39.92 228.996 37.36 222.724 35.824L211.524 33.072C209.604 32.624 206.66 31.856 206.66 28.272C206.66 24.112 211.012 22.768 214.66 22.768C223.044 22.768 223.812 27.632 224.068 29.68H233.284C233.22 24.048 229.444 14.832 215.364 14.832C200.452 14.832 197.7 23.856 197.7 28.976C197.7 39.088 204.868 40.752 212.292 42.48L217.22 43.632C222.084 44.784 225.54 45.744 225.54 49.328C225.54 54.192 220.484 55.28 215.94 55.28C207.556 55.28 206.276 50.416 206.212 47.856H196.996Z" fill="white"/>
</svg>
