<svg width="1192" height="75" viewBox="0 0 1192 75" fill="none" xmlns="http://www.w3.org/2000/svg">
    <path d="M54.6 23.232V24.232H55.6519L55.5987 23.1814L54.6 23.232ZM18.696 38.784L18.4681 39.7577L18.4707 39.7583L18.696 38.784ZM32.808 42.048L33.0389 41.075L33.0333 41.0737L32.808 42.048ZM10.44 49.728H11.44V48.728H10.44V49.728ZM1.704 49.728V48.728H0.704V49.728H1.704ZM8.712 67.2L9.38352 66.459L9.38164 66.4573L8.712 67.2ZM40.872 34.56L41.1022 33.5868L41.0955 33.5853L40.872 34.56ZM21.192 30.048L20.9604 31.0208L20.9685 31.0227L21.192 30.048ZM45.864 23.232L44.865 23.277L44.908 24.232H45.864V23.232ZM55.5987 23.1814C55.4042 19.3389 54.6969 13.5728 50.8311 8.76905C46.9282 3.91928 39.9747 0.247995 27.72 0.247995V2.248C39.5614 2.248 45.8558 5.77671 49.2729 10.0229C52.7271 14.3152 53.4118 19.5411 53.6013 23.2826L55.5987 23.1814ZM27.72 0.247995C19.1479 0.247995 12.9415 2.96424 8.88 7.17802C4.82986 11.38 3.008 16.9727 3.008 22.56H5.008C5.008 17.3953 6.69014 12.3319 10.32 8.56597C13.9385 4.81175 19.5881 2.248 27.72 2.248V0.247995ZM3.008 22.56C3.008 28.8957 5.71669 32.9687 9.04501 35.5645C12.3282 38.1251 16.1737 39.2207 18.4681 39.7577L18.9239 37.8103C16.7063 37.2913 13.2078 36.2749 10.275 33.9875C7.38731 31.7353 5.008 28.2243 5.008 22.56H3.008ZM18.4707 39.7583L32.5827 43.0223L33.0333 41.0737L18.9213 37.8097L18.4707 39.7583ZM32.5771 43.021C38.2592 44.3693 41.7165 45.5792 43.7738 47.2317C45.7114 48.7879 46.496 50.8192 46.496 54.24H48.496C48.496 50.4608 47.6007 47.7401 45.0262 45.6723C42.5715 43.7008 38.6848 42.4147 33.0389 41.075L32.5771 43.021ZM46.496 54.24C46.496 56.5068 45.8517 58.2554 44.8217 59.6256C43.782 61.0087 42.3084 62.0597 40.5784 62.8455C37.0976 64.4267 32.7529 64.856 29.448 64.856V66.856C32.8631 66.856 37.5424 66.4213 41.4056 64.6665C43.3476 63.7843 45.126 62.5493 46.4204 60.8274C47.7243 59.0926 48.496 56.9172 48.496 54.24H46.496ZM29.448 64.856C25.1436 64.856 20.6148 63.9629 17.193 61.6442C13.8289 59.3645 11.44 55.6477 11.44 49.728H9.44C9.44 56.2883 12.1391 60.6355 16.071 63.2998C19.9452 65.9251 24.9204 66.856 29.448 66.856V64.856ZM10.44 48.728H1.704V50.728H10.44V48.728ZM0.704 49.728C0.704 56.3148 1.89656 62.4014 8.04236 67.9427L9.38164 66.4573C3.81544 61.4386 2.704 56.0052 2.704 49.728H0.704ZM8.04048 67.941C9.62012 69.3725 11.7362 71.1131 15.1165 72.4828C18.4873 73.8487 23.0593 74.824 29.544 74.824V72.824C23.2607 72.824 18.9527 71.8793 15.8675 70.6292C12.7918 69.3829 10.8759 67.8115 9.38352 66.459L8.04048 67.941ZM29.544 74.824C35.5473 74.824 42.4938 73.6814 47.9754 70.385C53.5185 67.0515 57.52 61.5317 57.52 52.992H55.52C55.52 60.7723 51.9375 65.6685 46.9446 68.671C41.8902 71.7106 35.3487 72.824 29.544 72.824V74.824ZM57.52 52.992C57.52 47.2982 55.7642 42.9632 52.7728 39.7793C49.8 36.6151 45.6862 34.6712 41.1022 33.5869L40.6418 35.5331C44.9858 36.5608 48.696 38.3609 51.3152 41.1487C53.9158 43.9168 55.52 47.7418 55.52 52.992H57.52ZM41.0955 33.5853L21.4155 29.0733L20.9685 31.0227L40.6485 35.5347L41.0955 33.5853ZM21.4236 29.0752C19.4553 28.6065 17.6064 27.9323 16.2552 26.7605C14.9515 25.63 14.032 23.9682 14.032 21.312H12.032C12.032 24.5118 13.1765 26.738 14.9448 28.2715C16.6656 29.7637 18.8967 30.5294 20.9604 31.0208L21.4236 29.0752ZM14.032 21.312C14.032 18.8598 14.6091 16.9848 15.5158 15.5387C16.4247 14.089 17.7003 13.0141 19.1801 12.2215C22.1686 10.6209 25.9084 10.216 28.776 10.216V8.216C25.7876 8.216 21.6554 8.62705 18.2359 10.4585C16.5117 11.3819 14.9493 12.677 13.8213 14.4763C12.6909 16.2792 12.032 18.5322 12.032 21.312H14.032ZM28.776 10.216C32.5422 10.216 36.4776 11.0331 39.4992 13.0586C42.4735 15.0525 44.6392 18.2639 44.865 23.277L46.863 23.187C46.6088 17.5441 44.1185 13.7475 40.6128 11.3974C37.1544 9.07892 32.7858 8.216 28.776 8.216V10.216ZM45.864 24.232H54.6V22.232H45.864V24.232ZM99.2393 3.07199H100.239V2.07199H99.2393V3.07199ZM89.9273 3.07199V2.07199H88.9273V3.07199H89.9273ZM89.9273 72H88.9273V73H89.9273V72ZM99.2393 72V73H100.239V72H99.2393ZM99.2393 2.07199H89.9273V4.07199H99.2393V2.07199ZM88.9273 3.07199V72H90.9273V3.07199H88.9273ZM89.9273 73H99.2393V71H89.9273V73ZM100.239 72V3.07199H98.2393V72H100.239ZM181.062 58.752V59.752H182.062V58.752H181.062ZM180.87 58.752L180.02 59.2783L180.313 59.752H180.87V58.752ZM146.406 3.07199L147.256 2.54569L146.963 2.07199H146.406V3.07199ZM135.366 3.07199V2.07199H134.366V3.07199H135.366ZM135.366 72H134.366V73H135.366V72ZM144.39 72V73H145.39V72H144.39ZM144.39 16.32V15.32H143.39V16.32H144.39ZM144.582 16.32L145.428 15.7874L145.134 15.32H144.582V16.32ZM179.622 72L178.776 72.5326L179.07 73H179.622V72ZM190.086 72V73H191.086V72H190.086ZM190.086 3.07199H191.086V2.07199H190.086V3.07199ZM181.062 3.07199V2.07199H180.062V3.07199H181.062ZM181.062 57.752H180.87V59.752H181.062V57.752ZM181.72 58.2257L147.256 2.54569L145.556 3.5983L180.02 59.2783L181.72 58.2257ZM146.406 2.07199H135.366V4.07199H146.406V2.07199ZM134.366 3.07199V72H136.366V3.07199H134.366ZM135.366 73H144.39V71H135.366V73ZM145.39 72V16.32H143.39V72H145.39ZM144.39 17.32H144.582V15.32H144.39V17.32ZM143.736 16.8526L178.776 72.5326L180.468 71.4674L145.428 15.7874L143.736 16.8526ZM179.622 73H190.086V71H179.622V73ZM191.086 72V3.07199H189.086V72H191.086ZM190.086 2.07199H181.062V4.07199H190.086V2.07199ZM180.062 3.07199V58.752H182.062V3.07199H180.062ZM254.855 43.104H253.855V44.104H254.855V43.104ZM276.359 43.104H277.359V42.104H276.359V43.104ZM268.775 61.44L269.396 62.2237L269.397 62.2233L268.775 61.44ZM274.919 24L273.949 24.2407L274.137 25H274.919V24ZM283.943 24V25H285.082L284.935 23.8707L283.943 24ZM232.967 66.048L233.665 65.3313L233.659 65.3263L233.654 65.3214L232.967 66.048ZM276.839 63.072L277.81 62.8319L277.291 60.7343L276.028 62.4874L276.839 63.072ZM279.047 72L278.077 72.2401L278.264 73H279.047V72ZM285.095 72V73H286.095V72H285.095ZM285.095 35.136H286.095V34.136H285.095V35.136ZM254.855 35.136V34.136H253.855V35.136H254.855ZM254.855 44.104H276.359V42.104H254.855V44.104ZM275.359 43.104C275.359 50.3422 273.865 56.1239 268.154 60.6567L269.397 62.2233C275.782 57.1561 277.359 50.6498 277.359 43.104H275.359ZM268.154 60.6563C263.334 64.4759 258.047 64.856 254.663 64.856V66.856C258.191 66.856 264.04 66.4681 269.396 62.2237L268.154 60.6563ZM254.663 64.856C245.806 64.856 240.401 61.4049 237.156 56.3629C233.864 51.2467 232.719 44.3697 232.719 37.44H230.719C230.719 44.5262 231.879 51.8573 235.474 57.4451C239.118 63.1071 245.185 66.856 254.663 66.856V64.856ZM232.719 37.44C232.719 28.6013 235.209 21.8669 239.111 17.3584C243.007 12.8577 248.367 10.504 254.279 10.504V8.504C247.807 8.504 241.888 11.0943 237.599 16.0496C233.317 20.9971 230.719 28.2307 230.719 37.44H232.719ZM254.279 10.504C257.978 10.504 262.206 11.1154 265.843 13.1271C269.443 15.1183 272.529 18.5143 273.949 24.2407L275.89 23.7593C274.334 17.4857 270.891 13.6337 266.811 11.3769C262.768 9.14058 258.164 8.504 254.279 8.504V10.504ZM274.919 25H283.943V23H274.919V25ZM284.935 23.8707C282.829 7.72654 267.907 0.247995 254.759 0.247995V2.248C267.34 2.248 281.025 9.36146 282.952 24.1293L284.935 23.8707ZM254.759 0.247995C243.21 0.247995 234.764 5.12496 229.228 12.1871C223.716 19.2196 221.119 28.3755 221.119 36.96H223.119C223.119 28.7445 225.611 20.0443 230.802 13.4209C235.971 6.82703 243.844 2.248 254.759 2.248V0.247995ZM221.119 36.96C221.119 44.2937 221.397 56.4847 232.28 66.7746L233.654 65.3214C223.418 55.6433 223.119 44.2183 223.119 36.96H221.119ZM232.27 66.7647C235.969 70.3635 241.968 74.824 254.087 74.824V72.824C242.591 72.824 237.07 68.6445 233.665 65.3313L232.27 66.7647ZM254.087 74.824C263.774 74.824 272.735 70.4786 277.651 63.6566L276.028 62.4874C271.536 68.7214 263.217 72.824 254.087 72.824V74.824ZM275.869 63.3121L278.077 72.2401L280.018 71.7599L277.81 62.8319L275.869 63.3121ZM279.047 73H285.095V71H279.047V73ZM286.095 72V35.136H284.095V72H286.095ZM285.095 34.136H254.855V36.136H285.095V34.136ZM253.855 35.136V43.104H255.855V35.136H253.855ZM328.998 3.07199H329.998V2.07199H328.998V3.07199ZM319.686 3.07199V2.07199H318.686V3.07199H319.686ZM319.686 72H318.686V73H319.686V72ZM363.942 72V73H364.942V72H363.942ZM363.942 63.744H364.942V62.744H363.942V63.744ZM328.998 63.744H327.998V64.744H328.998V63.744ZM328.998 2.07199H319.686V4.07199H328.998V2.07199ZM318.686 3.07199V72H320.686V3.07199H318.686ZM319.686 73H363.942V71H319.686V73ZM364.942 72V63.744H362.942V72H364.942ZM363.942 62.744H328.998V64.744H363.942V62.744ZM329.998 63.744V3.07199H327.998V63.744H329.998ZM445.03 63.744H446.03V62.744H445.03V63.744ZM403.462 63.744H402.462V64.744H403.462V63.744ZM403.462 40.704V39.704H402.462V40.704H403.462ZM441.19 40.704V41.704H442.19V40.704H441.19ZM441.19 32.448H442.19V31.448H441.19V32.448ZM403.462 32.448H402.462V33.448H403.462V32.448ZM403.462 11.328V10.328H402.462V11.328H403.462ZM444.358 11.328V12.328H445.358V11.328H444.358ZM444.358 3.07199H445.358V2.07199H444.358V3.07199ZM394.15 3.07199V2.07199H393.15V3.07199H394.15ZM394.15 72H393.15V73H394.15V72ZM445.03 72V73H446.03V72H445.03ZM445.03 62.744H403.462V64.744H445.03V62.744ZM404.462 63.744V40.704H402.462V63.744H404.462ZM403.462 41.704H441.19V39.704H403.462V41.704ZM442.19 40.704V32.448H440.19V40.704H442.19ZM441.19 31.448H403.462V33.448H441.19V31.448ZM404.462 32.448V11.328H402.462V32.448H404.462ZM403.462 12.328H444.358V10.328H403.462V12.328ZM445.358 11.328V3.07199H443.358V11.328H445.358ZM444.358 2.07199H394.15V4.07199H444.358V2.07199ZM393.15 3.07199V72H395.15V3.07199H393.15ZM394.15 73H445.03V71H394.15V73ZM446.03 72V63.744H444.03V72H446.03ZM534.532 11.04V10.04H533.532V11.04H534.532ZM534.532 34.944H533.532V35.944H534.532V34.944ZM534.532 42.912V41.912H533.532V42.912H534.532ZM525.22 3.07199V2.07199H524.22V3.07199H525.22ZM525.22 72H524.22V73H525.22V72ZM534.532 72V73H535.532V72H534.532ZM534.532 12.04H553.444V10.04H534.532V12.04ZM553.444 12.04C557.193 12.04 560.35 12.7249 562.55 14.3315C564.691 15.8951 566.076 18.4445 566.076 22.56H568.076C568.076 17.9395 566.485 14.7289 563.73 12.7165C561.033 10.7471 557.375 10.04 553.444 10.04V12.04ZM566.076 22.56C566.076 27.0033 564.735 29.7666 562.582 31.4575C560.38 33.187 557.144 33.944 553.06 33.944V35.944C557.327 35.944 561.099 35.165 563.817 33.0304C566.584 30.8574 568.076 27.4287 568.076 22.56H566.076ZM553.06 33.944H534.532V35.944H553.06V33.944ZM535.532 34.944V11.04H533.532V34.944H535.532ZM534.532 43.912H556.228V41.912H534.532V43.912ZM556.228 43.912C563.983 43.912 569.389 41.0898 572.838 36.9259C576.261 32.7931 577.676 27.4368 577.676 22.464H575.676C575.676 27.0912 574.355 31.9589 571.298 35.6501C568.266 39.3102 563.449 41.912 556.228 41.912V43.912ZM577.676 22.464C577.676 16.6613 575.671 11.5451 571.941 7.87883C568.21 4.2117 562.832 2.07199 556.228 2.07199V4.07199C562.391 4.07199 567.238 6.06029 570.539 9.30516C573.841 12.5509 575.676 17.1307 575.676 22.464H577.676ZM556.228 2.07199H525.22V4.07199H556.228V2.07199ZM524.22 3.07199V72H526.22V3.07199H524.22ZM525.22 73H534.532V71H525.22V73ZM535.532 72V42.912H533.532V72H535.532ZM618.915 42.432V41.432H617.915V42.432H618.915ZM655.395 72L654.442 72.3032L654.664 73H655.395V72ZM666.819 72V73H667.819V72H666.819ZM666.819 70.464H667.819V69.8813L667.312 69.594L666.819 70.464ZM663.363 63.552L664.363 63.527L664.362 63.5164L664.362 63.5059L663.363 63.552ZM662.787 51.072L661.788 51.112L661.788 51.1181L662.787 51.072ZM654.531 38.112L654.025 37.2496L652.293 38.2664L654.148 39.0357L654.531 38.112ZM609.603 3.07199V2.07199H608.603V3.07199H609.603ZM609.603 72H608.603V73H609.603V72ZM618.915 72V73H619.915V72H618.915ZM618.915 11.04V10.04H617.915V11.04H618.915ZM618.915 34.464H617.915V35.464H618.915V34.464ZM618.915 43.432H641.475V41.432H618.915V43.432ZM641.475 43.432C646.841 43.432 649.548 45.0168 650.98 47.0313C652.465 49.1205 652.763 51.9107 652.763 54.72H654.763C654.763 51.8653 654.485 48.5115 652.61 45.8727C650.682 43.1592 647.245 41.432 641.475 41.432V43.432ZM652.763 54.72C652.763 56.0383 652.836 59.3253 653.077 62.817C653.317 66.2728 653.729 70.0605 654.442 72.3032L656.348 71.6968C655.718 69.7155 655.313 66.1592 655.073 62.679C654.834 59.2347 654.763 55.9937 654.763 54.72H652.763ZM655.395 73H666.819V71H655.395V73ZM667.819 72V70.464H665.819V72H667.819ZM667.312 69.594C665.96 68.8276 665.319 68.1897 664.952 67.4097C664.559 66.5757 664.411 65.449 664.363 63.527L662.363 63.577C662.411 65.495 662.551 67.0083 663.142 68.2623C663.759 69.5703 664.798 70.4684 666.326 71.334L667.312 69.594ZM664.362 63.5059L663.786 51.0259L661.788 51.1181L662.364 63.5981L664.362 63.5059ZM663.786 51.032C663.589 46.1063 662.475 43.0304 660.76 40.9653C659.059 38.9156 656.866 37.9977 654.914 37.1883L654.148 39.0357C656.132 39.8583 657.875 40.6204 659.222 42.2427C660.555 43.8496 661.601 46.4377 661.788 51.112L663.786 51.032ZM655.037 38.9744C657.272 37.6626 659.821 35.9939 661.795 33.2895C663.783 30.5648 665.131 26.8715 665.131 21.6H663.131C663.131 26.5044 661.887 29.7712 660.179 32.1105C658.457 34.4701 656.206 35.9694 654.025 37.2496L655.037 38.9744ZM665.131 21.6C665.131 13.9996 662.156 9.03957 657.602 6.02978C653.118 3.0657 647.225 2.07199 641.475 2.07199V4.07199C647.053 4.07199 652.488 5.04629 656.5 7.69821C660.442 10.3044 663.131 14.6084 663.131 21.6H665.131ZM641.475 2.07199H609.603V4.07199H641.475V2.07199ZM608.603 3.07199V72H610.603V3.07199H608.603ZM609.603 73H618.915V71H609.603V73ZM619.915 72V42.432H617.915V72H619.915ZM618.915 12.04H642.147V10.04H618.915V12.04ZM642.147 12.04C644.425 12.04 647.276 12.2632 649.544 13.6561C651.717 14.9909 653.531 17.5152 653.531 22.56H655.531C655.531 16.9488 653.458 13.7131 650.59 11.9519C647.818 10.2487 644.477 10.04 642.147 10.04V12.04ZM653.531 22.56C653.531 27.3768 651.85 30.0012 649.538 31.4867C647.138 33.0291 643.878 33.464 640.515 33.464V35.464C643.968 35.464 647.716 35.0349 650.62 33.1693C653.612 31.2468 655.531 27.9192 655.531 22.56H653.531ZM640.515 33.464H618.915V35.464H640.515V33.464ZM619.915 34.464V11.04H617.915V34.464H619.915ZM749.065 37.536C749.065 45.4709 746.858 52.236 742.911 56.9978C738.98 61.7402 733.267 64.568 726.065 64.568V66.568C733.84 66.568 740.126 63.4918 744.451 58.2742C748.76 53.076 751.065 45.8251 751.065 37.536H749.065ZM726.065 64.568C718.864 64.568 713.15 61.7402 709.219 56.9978C705.272 52.236 703.065 45.4709 703.065 37.536H701.065C701.065 45.8251 703.37 53.076 707.679 58.2742C712.004 63.4918 718.291 66.568 726.065 66.568V64.568ZM703.065 37.536C703.065 29.6011 705.272 22.836 709.219 18.0742C713.15 13.3318 718.864 10.504 726.065 10.504V8.504C718.291 8.504 712.004 11.5802 707.679 16.7978C703.37 21.996 701.065 29.2469 701.065 37.536H703.065ZM726.065 10.504C733.267 10.504 738.98 13.3318 742.911 18.0742C746.858 22.836 749.065 29.6011 749.065 37.536H751.065C751.065 29.2469 748.76 21.996 744.451 16.7978C740.126 11.5802 733.84 8.504 726.065 8.504V10.504ZM760.665 37.536C760.665 29.9467 758.662 20.6534 753.325 13.2283C747.954 5.75629 739.253 0.247995 726.065 0.247995V2.248C738.606 2.248 746.704 7.4437 751.701 14.3957C756.732 21.3946 758.665 30.2453 758.665 37.536H760.665ZM726.065 0.247995C712.878 0.247995 704.176 5.75629 698.805 13.2283C693.468 20.6534 691.465 29.9467 691.465 37.536H693.465C693.465 30.2453 695.398 21.3946 700.429 14.3957C705.426 7.4437 713.525 2.248 726.065 2.248V0.247995ZM691.465 37.536C691.465 45.1253 693.468 54.4186 698.805 61.8437C704.176 69.3157 712.878 74.824 726.065 74.824V72.824C713.525 72.824 705.426 67.6283 700.429 60.6763C695.398 53.6774 693.465 44.8267 693.465 37.536H691.465ZM726.065 74.824C739.253 74.824 747.954 69.3157 753.325 61.8437C758.662 54.4186 760.665 45.1253 760.665 37.536H758.665C758.665 44.8267 756.732 53.6774 751.701 60.6763C746.704 67.6283 738.606 72.824 726.065 72.824V74.824ZM791.376 72H790.376V73H791.376V72ZM791.376 3.07199V2.07199H790.376V3.07199H791.376ZM800.688 11.04V10.04H799.688V11.04H800.688ZM800.688 64.032H799.688V65.032H800.688V64.032ZM791.376 73H818.928V71H791.376V73ZM818.928 73C830.608 73 838.261 67.8255 842.95 60.63C847.603 53.49 849.304 44.4222 849.304 36.576H847.304C847.304 44.1858 845.646 52.83 841.274 59.538C836.939 66.1905 829.904 71 818.928 71V73ZM849.304 36.576C849.304 26.4621 846.494 17.838 841.302 11.7247C836.095 5.59393 828.561 2.07199 819.312 2.07199V4.07199C828.015 4.07199 834.977 7.36606 839.778 13.0193C844.594 18.69 847.304 26.8179 847.304 36.576H849.304ZM819.312 2.07199H791.376V4.07199H819.312V2.07199ZM790.376 3.07199V72H792.376V3.07199H790.376ZM800.688 12.04H818.064V10.04H800.688V12.04ZM818.064 12.04C824.154 12.04 829.008 14.1279 832.363 18.2145C835.742 22.3299 837.704 28.6005 837.704 37.152H839.704C839.704 28.3275 837.682 21.5421 833.909 16.9455C830.112 12.3201 824.647 10.04 818.064 10.04V12.04ZM837.704 37.152C837.704 45.7047 835.765 52.1836 832.462 56.5003C829.184 60.7847 824.494 63.032 818.736 63.032V65.032C825.074 65.032 830.368 62.5273 834.05 57.7157C837.707 52.9364 839.704 45.9753 839.704 37.152H837.704ZM818.736 63.032H800.688V65.032H818.736V63.032ZM801.688 64.032V11.04H799.688V64.032H801.688ZM925.553 3.07199V2.07199H924.553V3.07199H925.553ZM889.937 3.07199H890.937V2.07199H889.937V3.07199ZM880.625 3.07199V2.07199H879.625V3.07199H880.625ZM934.865 3.07199H935.865V2.07199H934.865V3.07199ZM924.553 3.07199V46.656H926.553V3.07199H924.553ZM924.553 46.656C924.553 53.9153 922.238 58.3305 919.05 60.9561C915.825 63.6114 911.55 64.568 907.409 64.568V66.568C911.813 66.568 916.609 65.5566 920.321 62.4999C924.069 59.4135 926.553 54.3727 926.553 46.656H924.553ZM907.409 64.568C903.38 64.568 899.28 63.5704 896.199 60.8789C893.145 58.2102 890.937 53.7404 890.937 46.464H888.937C888.937 54.1636 891.29 59.2458 894.883 62.3851C898.451 65.5016 903.087 66.568 907.409 66.568V64.568ZM890.937 46.464V3.07199H888.937V46.464H890.937ZM889.937 2.07199H880.625V4.07199H889.937V2.07199ZM879.625 3.07199V49.056H881.625V3.07199H879.625ZM879.625 49.056C879.625 55.6875 881.68 62.1429 886.197 66.9488C890.726 71.7684 897.632 74.824 907.121 74.824V72.824C898.082 72.824 891.741 69.9276 887.654 65.5792C883.555 61.2171 881.625 55.2885 881.625 49.056H879.625ZM907.121 74.824C916.795 74.824 924.01 71.7733 928.805 66.8022C933.591 61.8402 935.865 55.0689 935.865 47.808H933.865C933.865 54.6591 931.723 60.8958 927.366 65.4138C923.016 69.9227 916.36 72.824 907.121 72.824V74.824ZM935.865 47.808V3.07199H933.865V47.808H935.865ZM934.865 2.07199H925.553V4.07199H934.865V2.07199ZM1027.19 23.808V24.808H1028.31L1028.18 23.6921L1027.19 23.808ZM1027.86 46.656L1028.85 46.802L1029.02 45.656H1027.86V46.656ZM1018.83 46.656V45.656H1018.01L1017.85 46.4621L1018.83 46.656ZM1018.16 23.808L1017.18 24.0175L1017.35 24.808H1018.16V23.808ZM1028.18 23.6921C1027.48 17.7096 1024.74 11.8387 1019.85 7.4629C1014.95 3.08002 1007.96 0.247995 998.867 0.247995V2.248C1007.53 2.248 1014.03 4.93597 1018.52 8.95309C1023.01 12.9773 1025.55 18.3864 1026.19 23.9239L1028.18 23.6921ZM998.867 0.247995C988.574 0.247995 980.249 4.02473 974.51 10.5856C968.784 17.1313 965.707 26.36 965.707 37.152H967.707C967.707 26.728 970.677 18.0047 976.015 11.9024C981.34 5.81526 989.096 2.248 998.867 2.248V0.247995ZM965.707 37.152C965.707 50.5956 969.608 60.041 975.632 66.1275C981.65 72.2084 989.678 74.824 997.715 74.824V72.824C990.104 72.824 982.627 70.3516 977.053 64.7205C971.485 59.095 967.707 50.2044 967.707 37.152H965.707ZM997.715 74.824C1000.37 74.824 1007.15 74.5327 1013.77 70.8713C1020.46 67.179 1026.88 60.1158 1028.85 46.802L1026.87 46.51C1024.99 59.2122 1018.94 65.733 1012.81 69.1207C1006.62 72.5393 1000.24 72.824 997.715 72.824V74.824ZM1027.86 45.656H1018.83V47.656H1027.86V45.656ZM1017.85 46.4621C1016.31 54.2704 1013.02 58.7602 1009.49 61.3136C1005.94 63.8814 1002.03 64.568 999.155 64.568V66.568C1002.32 66.568 1006.68 65.8146 1010.66 62.9344C1014.66 60.0398 1018.19 55.0736 1019.82 46.8499L1017.85 46.4621ZM999.155 64.568C990.89 64.568 985.507 61.5709 982.144 56.7295C978.736 51.8237 977.307 44.8873 977.307 36.864H975.307C975.307 45.0646 976.757 52.4803 980.501 57.8705C984.29 63.3251 990.331 66.568 999.155 66.568V64.568ZM977.307 36.864C977.307 27.9741 979.774 21.3922 983.653 17.0458C987.525 12.7069 992.883 10.504 998.867 10.504V8.504C992.37 8.504 986.448 10.9091 982.16 15.7142C977.879 20.5118 975.307 27.6099 975.307 36.864H977.307ZM998.867 10.504C1002.09 10.504 1006.07 11.0436 1009.54 12.9917C1012.96 14.917 1015.95 18.2536 1017.18 24.0175L1019.14 23.5985C1017.78 17.2664 1014.44 13.451 1010.52 11.2483C1006.64 9.06838 1002.27 8.504 998.867 8.504V10.504ZM1018.16 24.808H1027.19V22.808H1018.16V24.808ZM1053.27 11.328H1052.27V12.328H1053.27V11.328ZM1076.6 11.328H1077.6V10.328H1076.6V11.328ZM1076.6 72H1075.6V73H1076.6V72ZM1085.91 72V73H1086.91V72H1085.91ZM1085.91 11.328V10.328H1084.91V11.328H1085.91ZM1109.24 11.328V12.328H1110.24V11.328H1109.24ZM1109.24 3.07199H1110.24V2.07199H1109.24V3.07199ZM1053.27 3.07199V2.07199H1052.27V3.07199H1053.27ZM1053.27 12.328H1076.6V10.328H1053.27V12.328ZM1075.6 11.328V72H1077.6V11.328H1075.6ZM1076.6 73H1085.91V71H1076.6V73ZM1086.91 72V11.328H1084.91V72H1086.91ZM1085.91 12.328H1109.24V10.328H1085.91V12.328ZM1110.24 11.328V3.07199H1108.24V11.328H1110.24ZM1109.24 2.07199H1053.27V4.07199H1109.24V2.07199ZM1052.27 3.07199V11.328H1054.27V3.07199H1052.27ZM1188.37 23.232V24.232H1189.42L1189.37 23.1814L1188.37 23.232ZM1152.47 38.784L1152.24 39.7577L1152.24 39.7583L1152.47 38.784ZM1166.58 42.048L1166.81 41.075L1166.8 41.0737L1166.58 42.048ZM1144.21 49.728H1145.21V48.728H1144.21V49.728ZM1135.48 49.728V48.728H1134.48V49.728H1135.48ZM1142.48 67.2L1143.15 66.459L1143.15 66.4573L1142.48 67.2ZM1174.64 34.56L1174.87 33.5868L1174.87 33.5853L1174.64 34.56ZM1154.96 30.048L1154.73 31.0208L1154.74 31.0227L1154.96 30.048ZM1179.64 23.232L1178.64 23.277L1178.68 24.232H1179.64V23.232ZM1189.37 23.1814C1189.18 19.3389 1188.47 13.5728 1184.6 8.76905C1180.7 3.91928 1173.75 0.247995 1161.49 0.247995V2.248C1173.33 2.248 1179.63 5.77671 1183.04 10.0229C1186.5 14.3152 1187.18 19.5411 1187.37 23.2826L1189.37 23.1814ZM1161.49 0.247995C1152.92 0.247995 1146.71 2.96424 1142.65 7.17802C1138.6 11.38 1136.78 16.9727 1136.78 22.56H1138.78C1138.78 17.3953 1140.46 12.3319 1144.09 8.56597C1147.71 4.81175 1153.36 2.248 1161.49 2.248V0.247995ZM1136.78 22.56C1136.78 28.8957 1139.49 32.9687 1142.82 35.5645C1146.1 38.1251 1149.94 39.2207 1152.24 39.7577L1152.7 37.8103C1150.48 37.2913 1146.98 36.2749 1144.05 33.9875C1141.16 31.7353 1138.78 28.2243 1138.78 22.56H1136.78ZM1152.24 39.7583L1166.35 43.0223L1166.8 41.0737L1152.69 37.8097L1152.24 39.7583ZM1166.35 43.021C1172.03 44.3693 1175.49 45.5792 1177.55 47.2317C1179.48 48.7879 1180.27 50.8192 1180.27 54.24H1182.27C1182.27 50.4608 1181.37 47.7401 1178.8 45.6723C1176.34 43.7008 1172.46 42.4147 1166.81 41.075L1166.35 43.021ZM1180.27 54.24C1180.27 56.5068 1179.62 58.2554 1178.59 59.6256C1177.55 61.0087 1176.08 62.0597 1174.35 62.8455C1170.87 64.4267 1166.52 64.856 1163.22 64.856V66.856C1166.63 66.856 1171.31 66.4213 1175.18 64.6665C1177.12 63.7843 1178.9 62.5493 1180.19 60.8274C1181.5 59.0926 1182.27 56.9172 1182.27 54.24H1180.27ZM1163.22 64.856C1158.91 64.856 1154.39 63.9629 1150.96 61.6442C1147.6 59.3645 1145.21 55.6477 1145.21 49.728H1143.21C1143.21 56.2883 1145.91 60.6355 1149.84 63.2998C1153.72 65.9251 1158.69 66.856 1163.22 66.856V64.856ZM1144.21 48.728H1135.48V50.728H1144.21V48.728ZM1134.48 49.728C1134.48 56.3148 1135.67 62.4014 1141.81 67.9427L1143.15 66.4573C1137.59 61.4386 1136.48 56.0052 1136.48 49.728H1134.48ZM1141.81 67.941C1143.39 69.3725 1145.51 71.1131 1148.89 72.4828C1152.26 73.8487 1156.83 74.824 1163.32 74.824V72.824C1157.03 72.824 1152.72 71.8793 1149.64 70.6292C1146.56 69.3829 1144.65 67.8115 1143.15 66.459L1141.81 67.941ZM1163.32 74.824C1169.32 74.824 1176.27 73.6814 1181.75 70.385C1187.29 67.0515 1191.29 61.5317 1191.29 52.992H1189.29C1189.29 60.7723 1185.71 65.6685 1180.72 68.671C1175.66 71.7106 1169.12 72.824 1163.32 72.824V74.824ZM1191.29 52.992C1191.29 47.2982 1189.54 42.9632 1186.54 39.7793C1183.57 36.6151 1179.46 34.6712 1174.87 33.5869L1174.41 35.5331C1178.76 36.5608 1182.47 38.3609 1185.09 41.1487C1187.69 43.9168 1189.29 47.7418 1189.29 52.992H1191.29ZM1174.87 33.5853L1155.19 29.0733L1154.74 31.0227L1174.42 35.5347L1174.87 33.5853ZM1155.19 29.0752C1153.23 28.6065 1151.38 27.9323 1150.03 26.7605C1148.72 25.63 1147.8 23.9682 1147.8 21.312H1145.8C1145.8 24.5118 1146.95 26.738 1148.72 28.2715C1150.44 29.7637 1152.67 30.5294 1154.73 31.0208L1155.19 29.0752ZM1147.8 21.312C1147.8 18.8598 1148.38 16.9848 1149.29 15.5387C1150.2 14.089 1151.47 13.0141 1152.95 12.2215C1155.94 10.6209 1159.68 10.216 1162.55 10.216V8.216C1159.56 8.216 1155.43 8.62705 1152.01 10.4585C1150.28 11.3819 1148.72 12.677 1147.59 14.4763C1146.46 16.2792 1145.8 18.5322 1145.8 21.312H1147.8ZM1162.55 10.216C1166.31 10.216 1170.25 11.0331 1173.27 13.0586C1176.24 15.0525 1178.41 18.2639 1178.64 23.277L1180.63 23.187C1180.38 17.5441 1177.89 13.7475 1174.38 11.3974C1170.93 9.07892 1166.56 8.216 1162.55 8.216V10.216ZM1179.64 24.232H1188.37V22.232H1179.64V24.232Z" fill="#EE4B81"/>
    <path d="M301.496 47.856C301.496 53.552 304.376 63.216 321.144 63.216C325.176 63.216 339.256 62 339.256 48.176C339.256 39.92 333.496 37.36 327.224 35.824L316.024 33.072C314.104 32.624 311.16 31.856 311.16 28.272C311.16 24.112 315.512 22.768 319.16 22.768C327.544 22.768 328.312 27.632 328.568 29.68H337.784C337.72 24.048 333.944 14.832 319.864 14.832C304.952 14.832 302.2 23.856 302.2 28.976C302.2 39.088 309.368 40.752 316.792 42.48L321.72 43.632C326.584 44.784 330.04 45.744 330.04 49.328C330.04 54.192 324.984 55.28 320.44 55.28C312.056 55.28 310.776 50.416 310.712 47.856H301.496ZM355.384 16.048H345.784V62H355.384V16.048ZM392.396 48.048H392.268L374.028 16.048H363.916V62H372.876V29.232H373.004L391.756 62H401.356V16.048H392.396V48.048ZM432.12 44.976H442.808C440.824 54.256 433.784 55.088 431.672 55.088C425.144 55.088 418.296 51.824 418.296 39.28C418.296 27.504 424.632 22.768 431.48 22.768C438.264 22.768 441.528 28.528 441.528 30.32H451.128C450.616 23.984 445.048 14.832 430.968 14.832H430.84C415.416 14.832 408.504 26.672 408.504 39.152C408.504 55.28 418.552 63.216 429.624 63.216C438.007 63.216 441.528 59.056 443.96 56.24L444.92 62H451.32V37.232H432.12V44.976ZM469.964 16.048H460.364V62H492.812V53.68H469.964V16.048ZM533.281 16.048H499.489V62H534.369V53.872H508.897V41.968H531.297V33.84H508.897V24.176H533.281V16.048ZM569.589 45.424H580.597C592.949 45.424 595.253 34.928 595.253 30.768C595.253 21.744 589.877 16.048 580.981 16.048H559.989V62H569.589V45.424ZM569.589 37.488V23.984H577.205C583.157 23.984 585.653 25.84 585.653 30.32C585.653 32.368 585.653 37.488 578.485 37.488H569.589ZM602.677 62H612.085V44.016H622.005C629.109 44.016 629.493 46.448 629.493 52.72C629.493 57.456 629.877 59.824 630.517 62H641.141V60.784C639.093 60.016 639.093 58.352 639.093 51.632C639.093 43.056 637.045 41.648 633.269 39.984C637.812 38.448 640.373 34.096 640.373 29.04C640.373 25.072 638.133 16.048 625.909 16.048H602.677V62ZM612.085 36.272V23.984H624.053C629.685 23.984 630.773 27.568 630.773 30C630.773 34.544 628.341 36.272 623.349 36.272H612.085ZM645.566 39.024C645.566 60.592 661.566 63.216 667.646 63.216C673.726 63.216 689.726 60.592 689.726 39.024C689.726 17.456 673.726 14.832 667.646 14.832C661.566 14.832 645.566 17.456 645.566 39.024ZM655.166 39.024C655.166 26.16 662.462 22.96 667.646 22.96C672.83 22.96 680.126 26.16 680.126 39.024C680.126 51.888 672.83 55.088 667.646 55.088C662.462 55.088 655.166 51.888 655.166 39.024ZM697.427 62H717.331C732.499 62 736.403 47.792 736.403 37.936C736.403 29.232 733.203 16.048 717.715 16.048H697.427V62ZM706.835 23.984H716.051C720.147 23.984 726.611 25.072 726.611 38.64C726.611 46.192 723.987 54.064 716.179 54.064H706.835V23.984ZM780.414 16.048H770.622V46.32C770.622 51.888 767.934 55.088 761.342 55.088C756.862 55.088 753.15 52.272 753.15 45.872V16.048H743.358V46.512C743.486 51.12 744.446 54.832 746.942 57.648C751.038 62.192 757.31 63.216 761.534 63.216C773.118 63.216 780.414 58.032 780.414 45.936V16.048ZM828.714 31.088C828.202 24.304 822.634 14.832 808.874 14.832C797.034 14.832 787.754 23.024 787.754 39.088C787.754 54.96 796.522 63.216 808.746 63.216C820.266 63.216 826.794 56.24 828.714 46.256H819.114C817.962 51.888 814.25 54.896 808.938 54.896C800.81 54.896 797.546 47.472 797.546 39.216C797.546 26.224 804.33 23.152 808.938 23.152C816.874 23.152 818.346 28.336 819.114 31.088H828.714ZM855.509 24.176H869.397V16.048H832.021V24.176H845.909V62H855.509V24.176ZM872.746 47.856C872.746 53.552 875.626 63.216 892.394 63.216C896.426 63.216 910.506 62 910.506 48.176C910.506 39.92 904.746 37.36 898.474 35.824L887.274 33.072C885.354 32.624 882.41 31.856 882.41 28.272C882.41 24.112 886.762 22.768 890.41 22.768C898.794 22.768 899.562 27.632 899.818 29.68H909.034C908.97 24.048 905.194 14.832 891.114 14.832C876.202 14.832 873.45 23.856 873.45 28.976C873.45 39.088 880.618 40.752 888.042 42.48L892.97 43.632C897.834 44.784 901.29 45.744 901.29 49.328C901.29 54.192 896.234 55.28 891.69 55.28C883.306 55.28 882.026 50.416 881.962 47.856H872.746Z" fill="white"/>
</svg>
